<svg width="296" height="292" viewBox="0 0 296 292" fill="none" xmlns="http://www.w3.org/2000/svg">
<g opacity="0.4">
<path fill-rule="evenodd" clip-rule="evenodd" d="M233.787 233.59H147.901C123.878 233.59 103.56 225.046 86.9408 207.96C70.3218 190.863 62.0098 170.319 62.0098 146.328C62.0098 122.326 70.3218 101.662 86.9408 84.3289C103.56 67.0012 123.878 58.3323 147.901 58.3323C171.913 58.3323 192.237 67.0012 208.856 84.3289C225.48 101.662 233.787 122.326 233.787 146.328V233.59ZM148.082 0.513916C107.892 0.513916 73.3237 14.7611 44.3972 43.2402C15.4657 71.7295 1 106.088 1 146.327C1 186.566 15.4657 220.804 44.3972 249.047C73.3237 277.285 107.892 291.402 148.082 291.402H295.53V146.327C295.53 106.088 280.999 71.7295 251.947 43.2402C222.895 14.7611 188.272 0.513916 148.082 0.513916Z" fill="#FFECC4"/>
<path d="M233.787 233.59V234.09H234.287V233.59H233.787ZM86.9408 207.96L86.5823 208.308L86.5824 208.309L86.9408 207.96ZM86.9408 84.3289L86.58 83.9828L86.5799 83.9829L86.9408 84.3289ZM208.856 84.3289L208.495 84.675L208.856 84.3289ZM44.3972 43.2402L44.0464 42.8839L44.0464 42.884L44.3972 43.2402ZM44.3972 249.047L44.0479 249.405L44.3972 249.047ZM295.53 291.402V291.902H296.03V291.402H295.53ZM251.947 43.2402L252.297 42.8833L252.297 42.8832L251.947 43.2402ZM233.787 233.59V233.09H147.901V233.59V234.09H233.787V233.59ZM147.901 233.59V233.09C124.012 233.09 103.823 224.6 87.2992 207.611L86.9408 207.96L86.5824 208.309C103.296 225.493 123.744 234.09 147.901 234.09V233.59ZM86.9408 207.96L87.2993 207.611C70.7716 190.609 62.5098 170.19 62.5098 146.328H62.0098H61.5098C61.5098 170.449 69.8719 191.118 86.5823 208.308L86.9408 207.96ZM62.0098 146.328H62.5098C62.5098 122.455 70.7719 101.915 87.3017 84.6749L86.9408 84.3289L86.5799 83.9829C69.8717 101.409 61.5098 122.197 61.5098 146.328H62.0098ZM86.9408 84.3289L87.3017 84.675C103.826 67.4456 124.014 58.8323 147.901 58.8323V58.3323V57.8323C123.742 57.8323 103.293 66.5568 86.58 83.9828L86.9408 84.3289ZM147.901 58.3323V58.8323C171.777 58.8323 191.97 67.4456 208.495 84.675L208.856 84.3289L209.216 83.9828C192.503 66.5568 172.049 57.8323 147.901 57.8323V58.3323ZM208.856 84.3289L208.495 84.675C225.029 101.915 233.287 122.455 233.287 146.328H233.787H234.287C234.287 122.197 225.93 101.409 209.216 83.9828L208.856 84.3289ZM233.787 146.328H233.287V233.59H233.787H234.287V146.328H233.787ZM148.082 0.513916V0.013916C107.759 0.013916 73.0653 14.3137 44.0464 42.8839L44.3972 43.2402L44.748 43.5965C73.582 15.2084 108.025 1.01392 148.082 1.01392V0.513916ZM44.3972 43.2402L44.0464 42.884C15.0205 71.4662 0.5 105.953 0.5 146.327H1H1.5C1.5 106.224 15.911 71.9928 44.748 43.5965L44.3972 43.2402ZM1 146.327H0.5C0.5 186.701 15.0206 221.068 44.0479 249.405L44.3972 249.047L44.7465 248.689C15.9109 220.54 1.5 186.431 1.5 146.327H1ZM44.3972 249.047L44.0479 249.405C73.0672 277.734 107.761 291.902 148.082 291.902V291.402V290.902C108.023 290.902 73.5801 276.837 44.7465 248.689L44.3972 249.047ZM148.082 291.402V291.902H295.53V291.402V290.902H148.082V291.402ZM295.53 291.402H296.03V146.327H295.53H295.03V291.402H295.53ZM295.53 146.327H296.03C296.03 105.952 281.444 71.4653 252.297 42.8833L251.947 43.2402L251.597 43.5972C280.554 71.9937 295.03 106.225 295.03 146.327H295.53ZM251.947 43.2402L252.297 42.8832C223.153 14.3137 188.404 0.013916 148.082 0.013916V0.513916V1.01392C188.139 1.01392 222.637 15.2084 251.597 43.5973L251.947 43.2402Z" fill="#FFECC4"/>
</g>
</svg>
