<svg width="165" height="24" viewBox="0 0 165 24" fill="none" xmlns="http://www.w3.org/2000/svg">
<mask id="mask0_6212_12729" style="mask-type:luminance" maskUnits="userSpaceOnUse" x="0" y="0" width="165" height="24">
<path fill-rule="evenodd" clip-rule="evenodd" d="M0 0H164.093V24H0V0Z" fill="white"/>
</mask>
<g mask="url(#mask0_6212_12729)">
<path fill-rule="evenodd" clip-rule="evenodd" d="M160.069 14.229C160.039 14.3252 160.006 14.421 159.971 14.5156C159.968 14.5247 159.965 14.5338 159.961 14.5433C159.937 14.5813 159.923 14.6383 159.906 14.6796C159.76 15.0223 159.582 15.3519 159.375 15.6608C159.347 15.7021 159.315 15.7418 159.289 15.7843C159.371 15.6468 159.282 15.7938 159.259 15.8236C159.207 15.8909 159.154 15.9574 159.099 16.0231C158.982 16.1635 158.856 16.2981 158.724 16.4253C158.654 16.4935 158.581 16.5604 158.507 16.6256C158.5 16.6318 158.493 16.6393 158.485 16.6463C158.481 16.6483 158.478 16.6508 158.476 16.6529C158.437 16.6839 158.399 16.7148 158.36 16.7454C158.215 16.8565 158.064 16.9597 157.907 17.0535C157.826 17.1018 157.744 17.1472 157.661 17.191C157.62 17.2117 157.579 17.2323 157.538 17.2526C157.532 17.2555 157.488 17.2765 157.452 17.2939C157.244 17.3922 157.036 17.495 156.835 17.6057C156.462 17.8105 156.112 18.0674 155.86 18.4148C155.743 18.5754 155.413 19.5736 155.165 20.8052C155.169 19.5348 155.124 18.2665 154.996 16.999C154.815 15.2057 154.512 13.4261 154.361 11.6299C154.111 8.67078 154.378 5.37708 156.196 2.95978C156.38 4.25372 157.137 5.47331 157.875 6.51532C157.916 6.57273 157.958 6.63013 157.998 6.68754C157.746 7.29011 157.417 7.85634 157.023 8.38539C156.639 8.90082 157.504 9.39932 157.884 8.88967C158.181 8.49112 158.441 8.06821 158.665 7.6263C158.674 7.63992 158.683 7.65314 158.693 7.66677C158.824 7.85799 158.952 8.05169 159.074 8.24869C159.104 8.29784 159.137 8.34657 159.165 8.39737C159.168 8.40315 159.172 8.40894 159.174 8.41306C159.189 8.43908 159.204 8.4651 159.218 8.49112C159.272 8.58529 159.324 8.68028 159.374 8.77651C159.581 9.17134 159.76 9.58104 159.908 10.0019C159.982 10.2121 160.047 10.4248 160.104 10.64C160.131 10.7403 160.159 10.8415 160.179 10.9431C160.181 10.9547 160.183 10.9671 160.185 10.9749C160.191 11.0042 160.197 11.0336 160.202 11.0633C160.211 11.1104 160.221 11.1575 160.228 11.2045C160.262 11.3966 160.287 11.5903 160.305 11.7844C160.234 11.8777 160.16 11.9698 160.08 12.0574C159.553 12.6389 158.937 13.1176 158.284 13.5471C157.749 13.899 158.248 14.7646 158.786 14.4103C159.311 14.0654 159.821 13.6908 160.284 13.2654C160.264 13.4071 160.241 13.5475 160.211 13.6875C160.172 13.8701 160.125 14.0506 160.069 14.229ZM161.134 2.98814C159.19 1.03835 156.828 0.0516866 154.051 0.0285585C151.274 0.00501731 148.913 0.96814 146.968 2.91793C145.023 4.86771 144.067 7.22885 144.103 10.0005C144.137 12.7722 145.128 15.1333 147.073 17.0831L153.954 23.9807C154.344 19.4025 153.909 19.5215 153.781 19.2819C153.656 19.0502 153.478 18.864 153.259 18.7173C152.865 18.453 152.409 18.3217 151.977 18.1379C151.869 18.0916 151.763 18.0413 151.658 17.99C151.631 17.9756 151.604 17.962 151.578 17.9475C151.533 17.9227 151.489 17.8984 151.444 17.8723C151.25 17.76 151.063 17.6361 150.883 17.5027C150.702 17.3681 150.53 17.2243 150.365 17.0715C150.32 17.0294 150.276 16.9873 150.232 16.9439C150.21 16.9224 150.189 16.901 150.167 16.8791C150.161 16.8725 150.156 16.8679 150.152 16.8646C150.157 16.8687 150.161 16.8741 150.165 16.8782C150.151 16.8638 150.134 16.8464 150.152 16.8646C150.081 16.7948 150.016 16.7168 149.951 16.6416C149.652 16.2934 149.389 15.9126 149.164 15.5116C149.105 15.4084 149.059 15.3204 149.023 15.2481C148.973 15.1445 148.924 15.0391 148.878 14.933C148.787 14.7207 148.705 14.5047 148.634 14.285C148.564 14.0653 148.503 13.8427 148.454 13.6172C148.445 13.5755 148.436 13.5333 148.428 13.4912C148.956 13.9315 149.524 14.3218 150.129 14.6559C150.692 14.9665 151.195 14.1041 150.632 13.7931C149.761 13.312 148.985 12.7168 148.294 12.0056C148.294 11.8351 148.298 11.6645 148.308 11.4939C148.316 11.3651 148.328 11.2366 148.34 11.1082C148.341 11.1032 148.341 11.0995 148.341 11.0954C148.344 11.0694 148.347 11.0429 148.351 11.0169C148.359 10.9554 148.367 10.8942 148.376 10.8331C148.411 10.5936 148.456 10.3549 148.509 10.1186C148.619 9.63376 148.765 9.15757 148.944 8.69336C148.961 8.65123 148.977 8.60952 148.995 8.56739C148.995 8.56574 149.009 8.53311 149.015 8.51535C149.022 8.5009 149.028 8.48603 149.028 8.48479C149.041 8.45381 149.055 8.42243 149.068 8.39145C149.113 8.28861 149.159 8.18701 149.208 8.08624C149.249 7.99868 149.292 7.91237 149.336 7.82605C149.643 8.29481 150.014 8.71855 150.456 9.08323C150.948 9.4888 151.656 8.78587 151.161 8.37658C150.639 7.94623 150.212 7.43328 149.905 6.84104C150.049 6.61719 150.198 6.39747 150.355 6.18313C150.649 5.77962 150.997 5.40668 151.347 5.05274C151.522 4.87556 151.703 4.70375 151.889 4.53772C151.981 4.45471 152.075 4.37335 152.17 4.29322C152.177 4.28744 152.193 4.2734 152.206 4.26225C152.223 4.24903 152.239 4.23582 152.256 4.2226C152.3 4.18708 152.344 4.15198 152.389 4.11729C152.778 3.81414 153.183 3.54362 153.608 3.29334C154.026 3.0472 154.459 2.82335 154.904 2.62841C154.955 2.60652 155.034 2.55201 155.087 2.55077C155.017 2.57968 155.007 2.58381 155.057 2.56316C155.078 2.55448 155.098 2.54622 155.118 2.53796C155.159 2.52144 155.199 2.50451 155.24 2.48716C155.244 2.48469 155.248 2.48303 155.252 2.48138C155.257 2.47973 155.264 2.47684 155.273 2.47312C155.293 2.46527 155.313 2.45701 155.334 2.44875C155.396 2.42439 155.458 2.40043 155.52 2.37731C155.563 2.36078 155.607 2.34509 155.65 2.32981C155.676 2.33105 155.919 2.27323 155.945 2.27447C154.613 3.69478 153.978 5.38727 153.666 7.0335C152.987 10.62 153.889 14.2123 154.326 17.7674C154.558 19.659 154.525 20.207 154.486 22.1118C154.472 22.7503 154.448 23.3876 154.421 24.0248L161.223 17.2066C163.168 15.2568 164.125 12.8874 164.097 10.0972C164.067 7.30773 163.08 4.93792 161.134 2.98814Z" fill="white"/>
<path fill-rule="evenodd" clip-rule="evenodd" d="M24.0048 0H-0.0234375C-0.0234375 1.315 0.438445 2.43548 1.36303 3.36184C2.2868 4.28779 3.40504 4.75118 4.71653 4.75118H9.48657V18.942C9.48657 20.3164 9.97811 21.4972 10.962 22.483C11.946 23.4693 13.1235 23.962 14.4948 23.962V4.75118H19.2644C20.5763 4.75118 21.6941 4.28779 22.6183 3.36184C23.5425 2.43548 24.0048 1.315 24.0048 0Z" fill="white"/>
</g>
<path fill-rule="evenodd" clip-rule="evenodd" d="M24.9678 3.52518C22.6217 5.87572 21.4492 8.71054 21.4492 12.0305C21.4492 15.3504 22.6217 18.1753 24.9678 20.5055C27.3135 22.8353 30.1223 24 33.3944 24H40.4022C40.4022 22.6802 39.9392 21.5553 39.0128 20.6253C38.0859 19.6949 36.9723 19.2301 35.6715 19.2301H33.3944C31.4627 19.2301 29.817 18.5203 28.4566 17.1002C27.0965 15.6805 26.4165 13.9908 26.4165 12.0305C26.4165 10.0701 27.0965 8.37013 28.4566 6.93012C29.817 5.49052 31.4627 4.77031 33.3944 4.77031H35.6715C36.9723 4.77031 38.0859 4.3051 39.0128 3.3755C39.9392 2.44507 40.4022 1.32018 40.4022 0H33.3944C30.1223 0 27.3135 1.17547 24.9678 3.52518Z" fill="white"/>
<path fill-rule="evenodd" clip-rule="evenodd" d="M30.0934 10.228C29.6507 10.7135 29.4297 11.3146 29.4297 12.0313C29.4297 12.728 29.6555 13.3135 30.1081 13.7881C30.5602 14.2627 31.111 14.5 31.76 14.5H35.6831C36.9808 14.5 38.0917 14.015 39.0164 13.0444C39.9406 12.0743 40.4025 10.8926 40.4025 9.50002H31.76C31.0914 9.50002 30.5357 9.74254 30.0934 10.228Z" fill="white"/>
<path fill-rule="evenodd" clip-rule="evenodd" d="M61.3299 19.2301H54.3488C52.3965 19.2301 50.7446 18.5252 49.3937 17.1155C48.0428 15.7049 47.3672 14.0099 47.3672 12.0305C47.3672 10.0502 48.0428 8.34525 49.3937 6.91519C50.7446 5.48555 52.3965 4.77031 54.3488 4.77031C56.3006 4.77031 57.9526 5.48555 59.3034 6.91519C60.6543 8.34525 61.3299 10.0502 61.3299 12.0305V19.2301ZM54.3656 0C51.0988 0 48.2893 1.17547 45.9381 3.52518C43.586 5.87572 42.4102 8.71054 42.4102 12.0305C42.4102 15.3504 43.586 18.1753 45.9381 20.5055C48.2893 22.8353 51.0988 24 54.3656 24H66.3508V12.0305C66.3508 8.71054 65.17 5.87572 62.8082 3.52518C60.4467 1.17547 57.6324 0 54.3656 0Z" fill="white"/>
<path fill-rule="evenodd" clip-rule="evenodd" d="M134.089 19.2413H127.019C125.042 19.2413 123.369 18.5381 122.001 17.1316C120.633 15.7244 119.949 14.0333 119.949 12.0585C119.949 10.0829 120.633 8.38194 122.001 6.95523C123.369 5.52894 125.042 4.81538 127.019 4.81538C128.996 4.81538 130.669 5.52894 132.036 6.95523C133.405 8.38194 134.089 10.0829 134.089 12.0585V19.2413ZM127.029 0.0562286C123.72 0.0562286 120.875 1.22895 118.494 3.57315C116.113 5.91817 114.922 8.74635 114.922 12.0585C114.922 15.3707 116.113 18.1889 118.494 20.5137C120.875 22.838 123.72 24 127.029 24H139.165V12.0585C139.165 8.74635 137.969 5.91817 135.578 3.57315C133.187 1.22895 130.337 0.0562286 127.029 0.0562286Z" fill="white"/>
<path fill-rule="evenodd" clip-rule="evenodd" d="M87.5372 2.66023C87.5372 4.61601 86.8498 6.31159 85.4748 7.74863C84.0998 9.18485 82.4352 9.90338 80.4826 9.90338H73.8461V5.05241C73.8461 3.67535 73.3528 2.49353 72.3666 1.50571C71.38 0.517899 70.1992 0.0239921 68.8242 0.0239921V24H73.8461V14.6621H80.4826C82.4352 14.6621 84.0998 15.3802 85.4748 16.8173C86.8498 18.2539 87.5372 19.9499 87.5372 21.9052V24H92.5591V21.9052C92.5591 20.0099 92.1257 18.2191 91.2589 16.5327C90.3921 14.8466 89.1911 13.4348 87.6566 12.2976C89.1911 11.1605 90.3921 9.74908 91.2589 8.0626C92.1257 6.37695 92.5591 4.57588 92.5591 2.66023V0H87.5372V2.66023Z" fill="white"/>
<path fill-rule="evenodd" clip-rule="evenodd" d="M101.914 10.228C101.471 10.7135 101.25 11.3146 101.25 12.0313C101.25 12.728 101.476 13.3135 101.929 13.7881C102.381 14.2627 102.932 14.5 103.581 14.5H107.504C108.802 14.5 109.912 14.015 110.837 13.0444C111.761 12.0743 112.223 10.8926 112.223 9.50002H103.581C102.912 9.50002 102.356 9.74254 101.914 10.228Z" fill="white"/>
<path fill-rule="evenodd" clip-rule="evenodd" d="M96.7885 3.52518C94.4424 5.87572 93.2695 8.71054 93.2695 12.0305C93.2695 15.3504 94.4424 18.1753 96.7885 20.5055C99.1337 22.8353 101.943 24 105.215 24H112.223C112.223 22.6802 111.76 21.5553 110.833 20.6253C109.906 19.6949 108.793 19.2301 107.492 19.2301H105.215C103.283 19.2301 101.638 18.5203 100.278 17.1002C98.9171 15.6805 98.2371 13.9908 98.2371 12.0305C98.2371 10.0701 98.9171 8.37013 100.278 6.93012C101.638 5.49052 103.283 4.77031 105.215 4.77031H107.492C108.793 4.77031 109.906 4.3051 110.833 3.3755C111.76 2.44507 112.223 1.32018 112.223 0H105.215C101.943 0 99.1337 1.17547 96.7885 3.52518Z" fill="white"/>
</svg>
