<svg width="142" height="21" viewBox="0 0 142 21" fill="none" xmlns="http://www.w3.org/2000/svg">
<mask id="mask0_7536_13553" style="mask-type:luminance" maskUnits="userSpaceOnUse" x="0" y="0" width="142" height="21">
<path fill-rule="evenodd" clip-rule="evenodd" d="M0 0H141.256V20.6599H0V0Z" fill="white"/>
</mask>
<g mask="url(#mask0_7536_13553)">
<path fill-rule="evenodd" clip-rule="evenodd" d="M137.783 12.2487C137.756 12.3315 137.728 12.414 137.698 12.4954C137.696 12.5032 137.693 12.5111 137.69 12.5192C137.669 12.5519 137.657 12.601 137.642 12.6366C137.517 12.9316 137.363 13.2154 137.185 13.4813C137.161 13.5168 137.133 13.551 137.111 13.5876C137.182 13.4692 137.105 13.5958 137.085 13.6214C137.041 13.6793 136.995 13.7365 136.948 13.7931C136.846 13.914 136.739 14.0299 136.625 14.1394C136.564 14.198 136.502 14.2556 136.438 14.3118C136.432 14.3171 136.426 14.3235 136.419 14.3296C136.416 14.3313 136.413 14.3335 136.411 14.3353C136.378 14.3619 136.345 14.3886 136.311 14.4149C136.187 14.5105 136.056 14.5994 135.922 14.6801C135.852 14.7217 135.781 14.7608 135.709 14.7985C135.674 14.8163 135.639 14.8341 135.604 14.8515C135.599 14.854 135.561 14.8721 135.529 14.887C135.35 14.9716 135.172 15.0602 134.998 15.1554C134.677 15.3318 134.376 15.5529 134.159 15.8519C134.059 15.9902 133.775 16.8495 133.561 17.9097C133.565 16.8161 133.525 15.7243 133.415 14.6332C133.259 13.0895 132.999 11.5575 132.869 10.0114C132.654 7.46404 132.883 4.62873 134.449 2.54785C134.607 3.66171 135.259 4.71157 135.894 5.60856C135.929 5.65798 135.965 5.70739 136 5.75681C135.783 6.27552 135.5 6.76295 135.16 7.21837C134.83 7.66207 135.574 8.09118 135.901 7.65247C136.157 7.30939 136.381 6.94533 136.574 6.56492C136.581 6.57665 136.59 6.58803 136.598 6.59976C136.71 6.76437 136.821 6.93111 136.926 7.10069C136.952 7.143 136.98 7.18495 137.004 7.22868C137.007 7.23366 137.01 7.23864 137.012 7.24219C137.025 7.26459 137.038 7.28699 137.05 7.30939C137.096 7.39045 137.141 7.47222 137.184 7.55505C137.362 7.89493 137.517 8.24761 137.644 8.60989C137.707 8.79085 137.764 8.97395 137.813 9.15918C137.836 9.24557 137.86 9.33267 137.877 9.42013C137.879 9.43009 137.881 9.44075 137.882 9.44751C137.888 9.47275 137.892 9.49799 137.897 9.52359C137.905 9.56412 137.913 9.60465 137.92 9.64518C137.948 9.8105 137.97 9.97724 137.986 10.1443C137.924 10.2247 137.861 10.304 137.792 10.3793C137.339 10.8799 136.808 11.292 136.246 11.6617C135.785 11.9646 136.215 12.7098 136.678 12.4048C137.13 12.1079 137.569 11.7854 137.967 11.4192C137.95 11.5412 137.93 11.6621 137.904 11.7826C137.871 11.9397 137.83 12.0951 137.783 12.2487ZM138.704 2.57226C137.03 0.893835 134.997 0.0444877 132.607 0.0245783C130.216 0.00431346 128.183 0.833396 126.509 2.51182C124.835 4.19025 124.012 6.22278 124.043 8.60871C124.073 10.9946 124.926 13.0272 126.6 14.7056L132.524 20.6432C132.859 16.7022 132.485 16.8046 132.374 16.5984C132.267 16.3989 132.114 16.2386 131.925 16.1124C131.586 15.8849 131.193 15.7718 130.822 15.6136C130.729 15.5738 130.637 15.5304 130.547 15.4863C130.524 15.4739 130.501 15.4621 130.478 15.4497C130.44 15.4284 130.401 15.4074 130.363 15.385C130.196 15.2883 130.034 15.1816 129.879 15.0668C129.724 14.9509 129.576 14.8272 129.434 14.6956C129.395 14.6594 129.357 14.6231 129.319 14.5858C129.301 14.5673 129.282 14.5488 129.263 14.53C129.258 14.5243 129.254 14.5204 129.251 14.5175C129.255 14.5211 129.258 14.5257 129.262 14.5292C129.25 14.5168 129.235 14.5019 129.251 14.5175C129.19 14.4574 129.133 14.3902 129.078 14.3255C128.82 14.0258 128.593 13.698 128.4 13.3528C128.349 13.2639 128.309 13.1882 128.279 13.126C128.235 13.0368 128.194 12.9461 128.154 12.8547C128.076 12.672 128.005 12.4861 127.944 12.2969C127.883 12.1078 127.831 11.9161 127.789 11.722C127.781 11.6861 127.773 11.6499 127.766 11.6136C128.221 11.9926 128.71 12.3286 129.23 12.6162C129.715 12.8835 130.148 12.1412 129.664 11.8735C128.914 11.4593 128.246 10.947 127.651 10.3348C127.651 10.1879 127.654 10.0411 127.663 9.89428C127.67 9.78336 127.68 9.67279 127.691 9.56222C127.691 9.55796 127.691 9.55476 127.692 9.5512C127.694 9.5288 127.697 9.50605 127.7 9.48365C127.707 9.43068 127.714 9.37806 127.722 9.32544C127.752 9.11924 127.79 8.91375 127.836 8.71039C127.931 8.293 128.057 7.88308 128.211 7.48347C128.225 7.44721 128.239 7.4113 128.254 7.37504C128.254 7.37362 128.266 7.34553 128.272 7.33024C128.277 7.3178 128.283 7.305 128.283 7.30393C128.294 7.27727 128.306 7.25025 128.317 7.22359C128.356 7.13506 128.396 7.0476 128.437 6.96085C128.473 6.88548 128.51 6.81118 128.548 6.73687C128.812 7.14039 129.131 7.50516 129.512 7.81909C129.935 8.16821 130.545 7.56311 130.119 7.21079C129.67 6.84033 129.302 6.39877 129.038 5.88895C129.162 5.69625 129.29 5.50711 129.425 5.3226C129.678 4.97525 129.978 4.65421 130.279 4.34953C130.43 4.19701 130.586 4.04911 130.745 3.90619C130.825 3.83473 130.906 3.76469 130.988 3.69572C130.994 3.69074 131.008 3.67865 131.019 3.66906C131.033 3.65768 131.047 3.6463 131.062 3.63493C131.1 3.60435 131.138 3.57413 131.176 3.54427C131.511 3.28331 131.86 3.05044 132.225 2.835C132.585 2.6231 132.958 2.43041 133.341 2.2626C133.385 2.24376 133.453 2.19683 133.499 2.19576C133.438 2.22065 133.43 2.22421 133.473 2.20643C133.491 2.19896 133.508 2.19185 133.526 2.18474C133.56 2.17052 133.595 2.15595 133.63 2.14101C133.634 2.13888 133.637 2.13746 133.641 2.13604C133.645 2.13461 133.651 2.13212 133.658 2.12893C133.676 2.12217 133.693 2.11506 133.712 2.10795C133.765 2.08697 133.818 2.06635 133.871 2.04644C133.909 2.03222 133.946 2.01871 133.984 2.00556C134.005 2.00663 134.215 1.95685 134.237 1.95792C133.091 3.18057 132.544 4.6375 132.275 6.05462C131.691 9.14199 132.467 12.2343 132.843 15.2947C133.043 16.923 133.015 17.3948 132.981 19.0345C132.969 19.5841 132.949 20.1327 132.925 20.6812L138.78 14.8119C140.455 13.1335 141.279 11.0938 141.254 8.6919C141.229 6.29069 140.379 4.25069 138.704 2.57226V2.57226Z" fill="#A01937"/>
<path fill-rule="evenodd" clip-rule="evenodd" d="M20.6627 0H-0.0214844C-0.0214844 1.13199 0.376117 2.09653 1.17203 2.89397C1.96723 3.69105 2.92985 4.08995 4.05881 4.08995H8.16499V16.3058C8.16499 17.4889 8.58813 18.5054 9.43512 19.354C10.2821 20.203 11.2958 20.6272 12.4762 20.6272V4.08995H16.582C17.7113 4.08995 18.6736 3.69105 19.4691 2.89397C20.2647 2.09653 20.6627 1.13199 20.6627 0" fill="#D1AD65"/>
</g>
<path fill-rule="evenodd" clip-rule="evenodd" d="M21.4918 3.03457C19.4722 5.05798 18.4629 7.49827 18.4629 10.3562C18.4629 13.2141 19.4722 15.6458 21.4918 17.6517C23.5111 19.6573 25.9289 20.6599 28.7457 20.6599H34.7781C34.7781 19.5238 34.3796 18.5554 33.5821 17.7549C32.7842 16.9539 31.8256 16.5538 30.7058 16.5538H28.7457C27.0828 16.5538 25.6661 15.9427 24.495 14.7203C23.3243 13.4982 22.7389 12.0437 22.7389 10.3562C22.7389 8.66862 23.3243 7.20523 24.495 5.96564C25.6661 4.72639 27.0828 4.10642 28.7457 4.10642H30.7058C31.8256 4.10642 32.7842 3.70595 33.5821 2.90572C34.3796 2.10478 34.7781 1.13645 34.7781 0H28.7457C25.9289 0 23.5111 1.01188 21.4918 3.03457" fill="#D1AD65"/>
<path fill-rule="evenodd" clip-rule="evenodd" d="M25.9034 8.80456C25.5222 9.22248 25.332 9.73992 25.332 10.3569C25.332 10.9566 25.5265 11.4606 25.916 11.8692C26.3052 12.2777 26.7793 12.482 27.338 12.482H30.7152C31.8322 12.482 32.7886 12.0645 33.5845 11.229C34.3801 10.3939 34.7777 9.37663 34.7777 8.17788H27.338C26.7625 8.17788 26.2841 8.38665 25.9034 8.80456" fill="#D1AD65"/>
<path fill-rule="evenodd" clip-rule="evenodd" d="M52.7818 16.5538H46.7722C45.0917 16.5538 43.6696 15.947 42.5068 14.7335C41.3439 13.5192 40.7623 12.0601 40.7623 10.3562C40.7623 8.65149 41.3439 7.18382 42.5068 5.95278C43.6696 4.72211 45.0917 4.10641 46.7722 4.10641C48.4524 4.10641 49.8745 4.72211 51.0373 5.95278C52.2002 7.18382 52.7818 8.65149 52.7818 10.3562V16.5538ZM46.7857 0C43.9735 0 41.5551 1.01188 39.5311 3.03457C37.5063 5.05798 36.4941 7.49827 36.4941 10.3562C36.4941 13.2141 37.5063 15.6458 39.5311 17.6517C41.5551 19.6573 43.9735 20.6599 46.7857 20.6599H57.1029V10.3562C57.1029 7.49827 56.0865 5.05798 54.0533 3.03457C52.0205 1.01188 49.5978 0 46.7857 0V0Z" fill="#D1AD65"/>
<path fill-rule="evenodd" clip-rule="evenodd" d="M115.414 16.5635H109.329C107.626 16.5635 106.187 15.9581 105.009 14.7474C103.832 13.536 103.243 12.0803 103.243 10.3804C103.243 8.67968 103.832 7.21545 105.009 5.9873C106.187 4.75951 107.626 4.14526 109.329 4.14526C111.03 4.14526 112.47 4.75951 113.648 5.9873C114.826 7.21545 115.414 8.67968 115.414 10.3804V16.5635ZM109.341 0.0484238C106.493 0.0484238 104.044 1.05793 101.994 3.07588C99.9439 5.09454 98.9189 7.52911 98.9189 10.3803C98.9189 13.2315 99.9439 15.6575 101.994 17.6587C104.044 19.6596 106.493 20.6599 109.341 20.6599H119.788V10.3803C119.788 7.52911 118.759 5.09454 116.7 3.07588C114.642 1.05793 112.188 0.0484238 109.341 0.0484238V0.0484238Z" fill="#D1AD65"/>
<path fill-rule="evenodd" clip-rule="evenodd" d="M75.3587 2.29C75.3587 3.97358 74.7669 5.43319 73.5833 6.67024C72.3996 7.90657 70.9667 8.5251 69.2859 8.5251H63.573V4.34926C63.573 3.16384 63.1483 2.1465 62.2994 1.29616C61.4501 0.445822 60.4336 0.0206531 59.25 0.0206531V20.6599H63.573V12.6215H69.2859C70.9667 12.6215 72.3996 13.2397 73.5833 14.4768C74.7669 15.7134 75.3587 17.1734 75.3587 18.8566V20.6599H79.6817V18.8566C79.6817 17.225 79.3086 15.6835 78.5624 14.2318C77.8163 12.7803 76.7824 11.565 75.4615 10.5861C76.7824 9.60725 77.8163 8.39228 78.5624 6.94051C79.3086 5.48945 79.6817 3.93904 79.6817 2.29V0H75.3587V2.29" fill="#D1AD65"/>
<path fill-rule="evenodd" clip-rule="evenodd" d="M87.7299 8.80456C87.3488 9.22248 87.1582 9.73992 87.1582 10.3569C87.1582 10.9566 87.353 11.4606 87.7425 11.8692C88.1317 12.2777 88.6058 12.482 89.1645 12.482H92.5415C93.6589 12.482 94.6144 12.0645 95.4107 11.229C96.2063 10.3939 96.6039 9.37663 96.6039 8.17788H89.1645C88.589 8.17788 88.1106 8.38665 87.7299 8.80456" fill="#D1AD65"/>
<path fill-rule="evenodd" clip-rule="evenodd" d="M83.3173 3.03457C81.2977 5.05798 80.2881 7.49827 80.2881 10.3562C80.2881 13.2141 81.2977 15.6458 83.3173 17.6517C85.3361 19.6573 87.7543 20.6599 90.5714 20.6599H96.6033C96.6033 19.5238 96.2048 18.5554 95.4073 17.7549C94.6091 16.9539 93.6512 16.5538 92.5311 16.5538H90.5714C88.9078 16.5538 87.4915 15.9427 86.3208 14.7203C85.1497 13.4982 84.5643 12.0437 84.5643 10.3562C84.5643 8.66862 85.1497 7.20523 86.3208 5.96564C87.4915 4.72639 88.9078 4.10642 90.5714 4.10642H92.5311C93.6512 4.10642 94.6091 3.70595 95.4073 2.90572C96.2048 2.10478 96.6033 1.13645 96.6033 0H90.5714C87.7543 0 85.3361 1.01188 83.3173 3.03457" fill="#D1AD65"/>
</svg>
