<svg width="17" height="18" viewBox="0 0 17 18" fill="none" xmlns="http://www.w3.org/2000/svg">
<g clip-path="url(#clip0_4862_17701)">
<path d="M8.08105 17.9931V10.866C8.69592 10.8338 9.20398 10.5905 9.56907 10.083C9.81969 9.73455 9.9316 9.34025 9.9116 8.91247C9.87543 8.14188 9.3095 7.22755 8.08871 7.13873V0.0304631C8.44699 -0.0613561 8.59762 0.050629 8.59848 0.414044C8.59933 0.700229 8.60103 0.985984 8.59805 1.27217C8.59635 1.42234 8.6406 1.56608 8.79038 1.58839C8.89718 1.60426 9.04441 1.56221 9.12696 1.49099C9.35759 1.29105 9.56183 1.06064 9.77969 0.845681C9.95458 0.672769 10.0984 0.674485 10.2754 0.845681C10.3571 0.925057 10.438 1.00572 10.5163 1.0881C10.6984 1.27946 10.7001 1.41419 10.5133 1.60297C9.9482 2.17577 9.38439 2.75072 8.81081 3.31493C8.65635 3.46682 8.59082 3.62471 8.59465 3.84311C8.60656 4.52961 8.59848 5.2161 8.59933 5.9026C8.59975 6.2008 8.67762 6.30935 8.95463 6.41233C8.99463 6.42735 9.0342 6.44236 9.07377 6.45867C9.4417 6.60855 9.76466 6.54405 10.0427 6.26516C10.4843 5.82065 10.9226 5.37228 11.3685 4.93207C11.4894 4.81279 11.5396 4.6845 11.5388 4.51459C11.5332 3.57838 11.5362 2.64216 11.5362 1.68664H12.5791C12.583 1.748 12.5906 1.81536 12.591 1.88315C12.5923 2.19765 12.5923 2.51259 12.5919 2.82709C12.5919 2.99914 12.5693 3.18278 12.7757 3.26259C12.9668 3.33638 13.0795 3.20724 13.1957 3.08796C13.3795 2.89917 13.565 2.7121 13.7523 2.52674C13.9574 2.32337 14.0739 2.32294 14.2739 2.51859C14.6053 2.84268 14.6063 3.17034 14.2769 3.50157C14.1565 3.62257 14.0382 3.74657 13.9148 3.86499C13.7965 3.97869 13.6931 4.09754 13.7718 4.2756C13.8493 4.45023 14.0071 4.45838 14.1688 4.45709C14.4807 4.45495 14.7931 4.45667 15.105 4.45667C15.1752 4.45667 15.2454 4.45667 15.3335 4.45667V5.5083C15.2215 5.5083 15.1164 5.5083 15.0118 5.5083C14.1888 5.5083 13.3663 5.5113 12.5434 5.50572C12.3685 5.50443 12.2349 5.55335 12.1098 5.68249C11.6192 6.18879 11.1183 6.68521 10.6222 7.18636C10.4094 7.40132 10.3873 7.52961 10.5107 7.79906C10.5316 7.84454 10.5528 7.88959 10.572 7.93593C10.7204 8.29148 10.9839 8.46925 11.3626 8.46925C11.9868 8.46925 12.611 8.46367 13.2353 8.47268C13.4204 8.47526 13.5561 8.41991 13.6859 8.28647C14.2471 7.70981 14.8165 7.14088 15.3841 6.57065C15.6126 6.3411 15.7241 6.34239 15.9543 6.57065C16.413 7.02589 16.413 7.03533 15.9543 7.49785C15.8139 7.63945 15.6768 7.78447 15.5322 7.92177C15.4245 8.02388 15.3645 8.13887 15.419 8.28433C15.4786 8.44351 15.6122 8.47311 15.7662 8.47054C16.0568 8.46582 16.3479 8.46625 16.6385 8.46968C16.9002 8.47268 16.9947 8.5718 16.9989 8.83438C17.0066 9.2992 16.7778 9.53161 16.3126 9.53161C16.1138 9.53161 15.9126 9.51273 15.7177 9.53976C15.6139 9.55435 15.4671 9.62943 15.4377 9.71224C15.4041 9.80707 15.4454 9.97011 15.5143 10.0525C15.7058 10.2812 15.9296 10.482 16.139 10.6961C16.3411 10.9025 16.3415 11.0402 16.1458 11.244C15.6785 11.7305 15.6734 11.7305 15.196 11.2496C14.6846 10.7338 14.1782 10.2121 13.6565 9.70752C13.5604 9.61442 13.4016 9.54233 13.2702 9.53933C12.5685 9.52303 11.866 9.53075 11.1639 9.53247C10.8541 9.53332 10.7452 9.61184 10.6388 9.89846C10.609 9.97869 10.5792 10.0594 10.5448 10.1374C10.3788 10.5103 10.3916 10.591 10.6716 10.8733C11.1528 11.359 11.6285 11.8503 12.1209 12.3244C12.2166 12.4166 12.377 12.4844 12.5089 12.487C13.3242 12.5016 14.1403 12.4938 14.956 12.4947C15.2603 12.4947 15.3475 12.5835 15.3522 12.8894C15.3624 13.5472 15.3509 13.5592 14.6939 13.5592C14.4952 13.5592 14.2965 13.5639 14.0982 13.5579C13.9493 13.5532 13.8289 13.5948 13.7689 13.7394C13.7084 13.8857 13.7714 14.0007 13.8752 14.1037C14.0825 14.3096 14.2871 14.5177 14.4918 14.7258C14.6939 14.9313 14.6922 15.0601 14.4888 15.2716C14.0297 15.7483 14.0169 15.7483 13.5548 15.2806C13.4195 15.1437 13.2816 15.0094 13.1489 14.8709C13.0442 14.7619 12.9319 14.6799 12.774 14.7434C12.6166 14.8069 12.5889 14.9408 12.591 15.0953C12.5953 15.3883 12.5953 15.6818 12.591 15.9748C12.5872 16.2391 12.4868 16.3378 12.2298 16.3442C11.5532 16.361 11.5366 16.3447 11.5366 15.6689C11.5366 14.9395 11.5447 14.2101 11.5294 13.4807C11.5264 13.3473 11.4609 13.1846 11.3698 13.0885C10.8847 12.5771 10.3826 12.0815 9.88522 11.5817C9.66183 11.3573 9.53885 11.3362 9.25929 11.4662C9.18866 11.4993 9.11717 11.531 9.04441 11.5594C8.64103 11.716 8.6006 11.7739 8.6006 12.2017C8.6006 12.8809 8.59167 13.5605 8.60784 14.2397C8.61082 14.3731 8.67677 14.5358 8.76825 14.6314C9.33461 15.2231 9.91713 15.7989 10.4928 16.3812C10.7086 16.5991 10.7077 16.7235 10.495 16.9424C10.0363 17.4148 10.0303 17.4148 9.56311 16.9428C9.41758 16.7961 9.2844 16.6334 9.12185 16.5094C9.03335 16.4421 8.87336 16.388 8.7857 16.4249C8.69805 16.4614 8.6189 16.6154 8.60911 16.7244C8.58401 16.9939 8.6006 17.2672 8.6006 17.5388C8.6006 17.9507 8.51678 18.0287 8.08361 17.9953L8.08105 17.9931Z" fill="white"/>
<path d="M7.75793 5.35683V12.6578C6.52267 12.6281 5.53634 12.1313 4.81468 11.1303C3.95089 9.93235 3.896 8.3298 4.69043 7.07308C5.39677 5.95623 6.42651 5.39631 7.75751 5.35683H7.75793Z" fill="white"/>
<path d="M4.29993 6.36384C4.12079 6.67405 3.95399 6.96281 3.7757 7.27174C3.66847 7.20995 3.56039 7.1486 3.45273 7.08595C2.41193 6.47754 1.37071 5.86956 0.330337 5.26029C0.0597121 5.10197 -0.0492186 4.87328 0.0205651 4.62442C0.118858 4.27431 0.486499 4.13701 0.824355 4.33309C1.71367 4.84925 2.60044 5.37013 3.48805 5.8893C3.75697 6.04634 4.0259 6.20423 4.29993 6.3647V6.36384Z" fill="white"/>
<path d="M3.77044 10.7317C3.94448 11.035 4.11085 11.3242 4.28659 11.6301C4.25595 11.6529 4.21638 11.6889 4.17085 11.716C3.05771 12.3681 1.9433 13.019 0.830166 13.6716C0.636984 13.7849 0.442526 13.8106 0.248918 13.6862C0.0740336 13.5738 -0.010643 13.4069 0.00595188 13.1954C0.0212703 13.0014 0.124669 12.8641 0.288065 12.7689C1.4446 12.0922 2.60114 11.416 3.77044 10.7321V10.7317Z" fill="white"/>
<path d="M3.44833 8.47225V9.49171C3.4045 9.49943 3.36408 9.51273 3.32408 9.51316C2.59475 9.51445 1.86585 9.51702 1.13653 9.51273C0.7991 9.51058 0.564218 9.28018 0.571452 8.97554C0.578685 8.67563 0.809312 8.46024 1.13398 8.45938C1.85607 8.45681 2.57816 8.45852 3.30025 8.45938C3.34791 8.45938 3.39557 8.46753 3.4479 8.47268L3.44833 8.47225Z" fill="white"/>
<path d="M6.06559 4.97583C5.76007 5.15217 5.46817 5.32079 5.1618 5.49757C4.75884 4.78404 4.34865 4.07565 3.95718 3.35698C3.824 3.11241 3.94612 2.80477 4.18653 2.6782C4.43758 2.54562 4.72693 2.62757 4.88267 2.89488C5.23712 3.50457 5.58221 4.11985 5.9307 4.73341C5.97538 4.81235 6.01878 4.89216 6.06559 4.97626V4.97583Z" fill="white"/>
<path d="M5.14217 12.502C5.45406 12.6856 5.74554 12.8568 6.0468 13.0336C5.65108 13.7265 5.26088 14.4225 4.8575 15.1107C4.71495 15.354 4.42901 15.4196 4.18732 15.2965C3.95201 15.1768 3.81585 14.8786 3.9435 14.6409C4.33029 13.92 4.74176 13.213 5.14259 12.502H5.14217Z" fill="white"/>
<path d="M7.75721 4.64073C7.59127 4.6536 7.43808 4.66562 7.2683 4.67892C7.26107 4.61284 7.25001 4.55878 7.25001 4.50515C7.24916 3.1978 7.2483 1.89045 7.25001 0.583096C7.25043 0.231265 7.42064 0.0403326 7.75721 0.0124435V4.64073Z" fill="white"/>
<path d="M7.75725 17.9768C7.44875 17.9841 7.25387 17.7799 7.25131 17.4444C7.24706 16.8866 7.25004 16.3288 7.25004 15.7715C7.25004 15.0493 7.25004 14.3272 7.25004 13.6051C7.25004 13.5279 7.25004 13.4507 7.25004 13.3631H7.75725V17.9773V17.9768Z" fill="white"/>
</g>
<defs>
<clipPath id="clip0_4862_17701">
<rect width="17" height="18" fill="white"/>
</clipPath>
</defs>
</svg>
