<svg width="18" height="20" viewBox="0 0 18 20" fill="none" xmlns="http://www.w3.org/2000/svg">
<g clip-path="url(#clip0_4142_16733)">
<path d="M16.3153 16.8863C16.7728 17.3852 17.2078 17.8594 17.6781 18.3722C17.123 18.3249 16.6384 18.2833 16.1347 18.2398C16.2248 18.8363 16.3082 19.3869 16.4006 19.9994C15.9241 19.5111 15.522 19.0587 15.0765 18.6555C14.6343 18.2553 14.1482 17.9048 13.667 17.5205C13.7346 17.3436 13.8023 17.1381 13.8919 16.9433C13.9529 16.8104 13.9205 16.7437 13.8018 16.6736C12.8903 16.1351 11.9273 15.7339 10.8928 15.5125C8.49561 14.9986 6.26276 15.4458 4.16381 16.6871C4.13665 16.7031 4.10997 16.721 4.08471 16.7403C4.07233 16.7495 4.06422 16.764 4.03802 16.7949C4.08233 16.9095 4.13141 17.0352 4.17954 17.1609C4.22814 17.287 4.27626 17.4132 4.31677 17.52C3.83217 17.9077 3.34091 18.264 2.893 18.6691C2.45273 19.0674 2.05628 19.516 1.58455 19.9994C1.67556 19.3908 1.75752 18.8407 1.8471 18.2412C1.35203 18.2823 0.866956 18.3229 0.308507 18.3693C0.778329 17.856 1.21575 17.3784 1.66699 16.8853C1.5593 16.6997 1.45638 16.4904 1.32296 16.3038C1.20527 16.1399 1.24053 16.0452 1.38538 15.9296C1.79659 15.6014 2.19875 15.2611 2.62331 14.9102C2.56994 14.8667 2.51372 14.8174 2.45415 14.7734C2.12109 14.5259 1.80231 14.2542 1.44875 14.041C1.16524 13.8699 1.07995 13.6413 1.05994 13.3353C1.03087 12.8857 0.980838 12.4376 0.928424 11.99C0.916035 11.8827 0.873627 11.7724 0.820737 11.6772C0.567719 11.2214 0.29993 10.7738 0.0545359 10.3136C0.00259816 10.2159 -0.0155086 10.0685 0.0145105 9.96262C0.14364 9.50677 0.304695 9.0606 0.436683 8.60573C0.489098 8.42494 0.529123 8.22771 0.516734 8.04209C0.48195 7.52872 0.409523 7.01777 0.369974 6.50441C0.361874 6.40048 0.406188 6.26851 0.47242 6.1873C0.714955 5.88953 0.963684 5.59417 1.23529 5.32444C1.53405 5.02763 1.72417 4.68539 1.8309 4.27692C1.93049 3.89649 2.06009 3.52379 2.19208 3.15351C2.2221 3.06892 2.30263 2.979 2.38316 2.94033C2.85631 2.71362 3.33853 2.50673 3.81264 2.28146C3.93033 2.22539 4.04469 2.14225 4.13332 2.04605C4.47496 1.67529 4.81041 1.29872 5.13729 0.914906C5.24688 0.78584 5.36362 0.740884 5.52801 0.744268C6.02023 0.753936 6.51292 0.753936 7.00514 0.743785C7.14285 0.740884 7.28865 0.70898 7.4154 0.654356C7.88284 0.453747 8.34075 0.230419 8.80962 0.0341602C8.91206 -0.00886194 9.06025 -0.0127291 9.16175 0.0293263C9.61632 0.218817 10.0576 0.440696 10.5121 0.630187C10.6751 0.698345 10.8609 0.7346 11.0377 0.740401C11.4899 0.755386 11.9435 0.75877 12.3952 0.740401C12.6178 0.731216 12.7774 0.793574 12.8994 0.977748C12.9389 1.03721 13.0013 1.08071 13.0414 1.14017C13.6222 1.9982 14.4461 2.51059 15.3948 2.84172C15.6468 2.9297 15.7983 3.07327 15.866 3.34687C15.9542 3.70506 16.1038 4.04731 16.1953 4.40454C16.2825 4.74485 16.4578 5.01458 16.6946 5.26256C16.9762 5.55744 17.2464 5.86487 17.5037 6.18102C17.5738 6.26706 17.6176 6.40821 17.6095 6.51939C17.5718 7.02502 17.5056 7.52824 17.4632 8.03339C17.4513 8.17357 17.4623 8.32487 17.5023 8.45877C17.6467 8.94362 17.802 9.42556 17.965 9.90413C18.0212 10.0694 18.0131 10.2033 17.9173 10.3537C17.7539 10.6104 17.6324 10.8961 17.4561 11.1426C17.1206 11.612 16.9967 12.1379 16.9743 12.702C16.9705 12.7982 16.9362 12.8963 16.9467 12.9896C17.0167 13.6185 16.6999 13.9995 16.1914 14.2909C15.9098 14.4524 15.6621 14.6738 15.3995 14.8691C15.3871 14.8783 15.3805 14.8942 15.3643 14.9165C15.8341 15.3008 16.3049 15.6855 16.7842 16.0781C16.6155 16.3691 16.463 16.6311 16.3153 16.8858V16.8863ZM9.18938 12.863C10.6351 12.863 12.1894 13.2371 13.6641 13.9516C13.8509 14.042 13.9519 14.0217 14.0839 13.8689C15.855 11.8169 16.3725 9.4797 15.5834 6.87517C14.5909 3.59872 11.1811 1.54864 7.84758 2.11904C5.08678 2.59132 2.55994 4.83234 2.1168 8.08076C1.81422 10.2976 2.44415 12.2529 3.937 13.9139C4.05184 14.0415 4.14189 14.0352 4.28436 13.9666C5.77436 13.2463 7.34154 12.8601 9.18891 12.863H9.18938ZM5.01912 15.9002C5.29167 15.8731 5.37839 15.7547 5.30025 15.4951C5.24259 15.3046 5.23354 15.0992 5.20257 14.9005C5.1573 14.6109 5.11203 14.3214 5.06677 14.0314C4.87617 14.0662 4.79898 14.1174 4.84948 14.3127C4.92763 14.6134 4.96098 14.9261 5.01292 15.234C5.00149 15.2379 4.99005 15.2423 4.97861 15.2461C4.83995 14.9126 4.70082 14.5795 4.55644 14.2324C4.43255 14.2987 4.34393 14.3465 4.25577 14.3939C4.32391 14.7395 4.38872 15.0687 4.454 15.3974C4.43732 15.4018 4.42064 15.4061 4.40396 15.411C4.26959 15.1161 4.13522 14.8212 3.99609 14.5167C3.89602 14.5742 3.81597 14.6206 3.7302 14.6699C3.98417 15.1939 4.22766 15.6957 4.46495 16.1854C4.76657 16.1235 4.82566 15.9756 4.73751 15.7107C4.66175 15.4835 4.64269 15.2365 4.59837 14.9981C4.6079 14.9952 4.61743 14.9923 4.62696 14.989C4.75657 15.2896 4.88617 15.5903 5.01959 15.8997L5.01912 15.9002ZM11.2917 14.4374C11.2831 14.4364 11.275 14.436 11.2664 14.435C11.2397 14.2131 11.1959 13.9912 11.1907 13.7684C11.184 13.489 11.0563 13.3894 10.7818 13.4315C10.7199 13.9468 10.6594 14.4654 10.5946 14.9832C10.5722 15.1601 10.6384 15.2186 10.8176 15.1731C10.87 14.8 10.9219 14.4282 10.9738 14.0565C11.0401 14.3973 11.0911 14.7328 11.1087 15.0692C11.1192 15.2703 11.203 15.3341 11.4036 15.3244C11.5018 14.7526 11.599 14.1856 11.6991 13.6035C11.6042 13.5832 11.5313 13.5673 11.4384 13.5475C11.3874 13.8573 11.3398 14.1474 11.2926 14.4369L11.2917 14.4374ZM8.89729 14.0207C8.9883 13.895 9.03452 13.5678 8.90873 13.4092C8.68335 13.126 8.38697 13.2927 8.08678 13.27C8.12347 13.8815 8.15825 14.4567 8.19446 15.0542C8.28929 15.0465 8.36171 15.0407 8.4451 15.0339V14.2938C8.61092 14.2455 8.67811 14.3108 8.68668 14.4654C8.69574 14.6341 8.71098 14.8019 8.72623 14.9701C8.72814 14.9909 8.74863 15.0097 8.76673 15.0397C8.83297 15.0344 8.90015 15.0291 9.00498 15.0209C8.97067 14.7004 8.93827 14.3992 8.89777 14.0207H8.89729ZM6.74879 13.4866C6.8336 14.0865 6.91413 14.6603 6.99847 15.2572C7.1033 15.2244 7.17525 15.2017 7.25863 15.1751C7.23481 14.9798 7.20288 14.798 7.19574 14.6158C7.19335 14.5515 7.25244 14.4843 7.28389 14.4186C7.33725 14.4737 7.42159 14.521 7.43779 14.5858C7.48163 14.7622 7.49688 14.9459 7.52642 15.1465C7.61791 15.1325 7.69177 15.1209 7.79659 15.105C7.7499 14.8338 7.73036 14.5757 7.65222 14.3373C7.62029 14.2407 7.6141 14.1812 7.6241 14.0807C7.64316 13.8912 7.64364 13.664 7.55454 13.5117C7.50164 13.4218 7.26197 13.4305 7.1052 13.4223C6.99847 13.417 6.88935 13.459 6.74879 13.4861V13.4866ZM6.06025 13.6949C5.66715 13.752 5.66286 13.7539 5.67572 14.1005C5.69145 14.5172 5.71051 14.9343 5.73195 15.351C5.73624 15.4342 5.75863 15.5168 5.77579 15.6188C5.87252 15.5719 5.94065 15.5386 6.00403 15.5076C5.99212 15.3921 5.98211 15.2978 5.97067 15.1862C6.07026 15.1533 6.16222 15.1224 6.25514 15.0914C6.34424 15.2476 6.34996 15.5217 6.63824 15.3051C6.44526 14.7666 6.2518 14.2281 6.06025 13.6949ZM10.2262 15.1021C10.1853 14.595 10.1448 14.1251 10.11 13.6553C10.0819 13.2744 10.0814 13.271 9.66111 13.2782C9.54818 13.8501 9.4343 14.4273 9.31804 15.0165C9.45812 15.045 9.57201 15.0934 9.58725 14.9097C9.60584 14.6893 9.73306 14.6781 9.91032 14.7429C9.93128 14.8468 9.9532 14.9551 9.9775 15.076C10.048 15.0837 10.1166 15.091 10.2262 15.1026V15.1021ZM13.4083 16.1133C13.4611 15.498 13.8719 15.104 14.2602 14.6651C14.1535 14.61 14.0725 14.5684 13.9858 14.5239C13.8628 14.6767 13.7466 14.8212 13.6308 14.9648C13.5036 14.711 13.8095 14.3059 13.312 14.2121C13.312 14.3137 13.3072 14.4016 13.313 14.4886C13.342 14.9382 13.383 15.3887 13.1833 15.8156C13.0952 16.0041 13.1895 16.079 13.4083 16.1133ZM12.3385 14.0724C12.2318 14.5674 12.1293 15.0441 12.0221 15.5424C12.1108 15.5744 12.186 15.6014 12.2742 15.6333C12.3986 15.1291 12.5153 14.6574 12.6311 14.1889C12.7412 14.2228 12.8226 14.2474 12.9251 14.2789C12.9432 14.1899 12.958 14.1164 12.9751 14.0314C12.673 13.9245 12.3919 13.8245 12.0846 13.7157C12.076 13.8278 12.0698 13.9023 12.0641 13.9748C12.1608 14.0091 12.2347 14.0357 12.3385 14.0729V14.0724Z" fill="white"/>
<path d="M13.2418 11.9069C13.2485 11.9045 13.2337 11.9146 13.219 11.9146C12.6076 11.9103 12.6362 12.0355 12.63 11.3563C12.6281 11.1552 12.6314 10.9536 12.63 10.7526C12.6267 10.3238 12.5204 10.2276 12.0635 10.2701V11.904H11.4707V8.06874C11.8648 8.06874 12.2531 8.04312 12.6367 8.07696C12.9264 8.10258 13.148 8.29594 13.1856 8.59951C13.2213 8.89148 13.2247 9.19602 13.1832 9.48654C13.1599 9.65089 13.0184 9.79736 12.9221 9.96607C13.2123 10.1212 13.2299 10.4499 13.239 10.7738C13.2495 11.1422 13.2414 11.5115 13.2414 11.9074L13.2418 11.9069ZM12.0701 8.54247V9.6915C12.2636 9.70117 12.5076 9.75241 12.5576 9.54745C12.621 9.28931 12.61 8.99444 12.5514 8.73341C12.5319 8.6464 12.2674 8.61546 12.0697 8.54247H12.0701Z" fill="white"/>
<path d="M9.40514 8.05182C9.64816 8.05182 9.86305 8.03925 10.0751 8.05955C10.137 8.06535 10.2304 8.1572 10.2414 8.22197C10.4072 9.19698 10.5616 10.1739 10.7184 11.1504C10.7574 11.3945 10.7956 11.6391 10.837 11.9025H10.2485C10.2161 11.7087 10.1742 11.5139 10.1542 11.3167C10.1413 11.192 10.0903 11.1601 9.97312 11.1552C9.45994 11.1339 9.46089 11.1301 9.38656 11.6488C9.37417 11.7348 9.35225 11.8194 9.33415 11.9088H8.78809C8.99393 10.623 9.19739 9.3507 9.40562 8.0523L9.40514 8.05182ZM10.0565 10.6128C9.97265 10.0159 9.89164 9.43916 9.81064 8.86296C9.79682 8.86392 9.78253 8.86489 9.76871 8.86537C9.68961 9.44255 9.61051 10.0202 9.52903 10.6128H10.0565Z" fill="white"/>
<path d="M8.27297 11.905H6.65527V8.06543H8.26868V8.5933H7.25851V9.60939H8.04949V10.1798H7.25756V11.353H8.27297V11.905Z" fill="white"/>
<path d="M6.04463 8.05133C5.84069 8.68265 5.6358 9.27336 5.4614 9.87373C5.38659 10.1309 5.35133 10.4055 5.33752 10.6742C5.3175 11.0755 5.33227 11.4781 5.33227 11.8992H4.7662C4.71665 11.2524 4.72665 10.5896 4.60086 9.95446C4.47411 9.31493 4.21204 8.70343 4 8.05085C4.18059 8.05085 4.33069 8.05762 4.47983 8.04892C4.60515 8.04118 4.65565 8.08759 4.68901 8.21375C4.79241 8.60579 4.91439 8.99299 5.07497 9.38115C5.16931 9.05438 5.267 8.72905 5.35753 8.40131C5.45473 8.04988 5.45187 8.04892 5.8121 8.05085C5.87452 8.05085 5.93742 8.05085 6.04463 8.05085V8.05133Z" fill="white"/>
<path d="M8.42331 13.9967C8.41711 13.8792 8.40377 13.7613 8.40806 13.6438C8.40949 13.5998 8.4438 13.5312 8.47715 13.5205C8.51956 13.507 8.61486 13.5307 8.62153 13.5563C8.65012 13.667 8.67633 13.7879 8.66012 13.8981C8.65155 13.9541 8.55053 13.9957 8.49145 14.0441C8.46858 14.0286 8.44618 14.0126 8.42331 13.9972V13.9967Z" fill="white"/>
<path d="M7.13628 14.1683C7.11627 14.0054 7.09816 13.859 7.0791 13.7062C7.22062 13.6429 7.33212 13.6289 7.36929 13.8116C7.40455 13.9851 7.42218 14.1524 7.13628 14.1679V14.1683Z" fill="white"/>
<path d="M5.95259 14.9742C5.93591 14.6672 5.92352 14.4449 5.91113 14.223C5.92686 14.2172 5.94211 14.2119 5.95783 14.2061C6.02501 14.4028 6.09982 14.5976 6.15176 14.7987C6.15939 14.8277 6.05551 14.8862 5.95259 14.9742Z" fill="white"/>
<path d="M9.91219 14.4535H9.67871C9.72588 14.1968 9.76972 13.9585 9.81404 13.7197C9.82881 13.7192 9.8431 13.7187 9.85787 13.7183C9.8755 13.9542 9.89266 14.1905 9.91219 14.454V14.4535Z" fill="white"/>
<path d="M8.95844 7C8.72046 7 8.53138 6.95436 8.3912 6.86308C8.25102 6.7718 8.14996 6.63977 8.08802 6.46699C8.02934 6.29421 8 6.08884 8 5.85086H8.52323C8.52323 5.96822 8.53301 6.08395 8.55257 6.19804C8.57213 6.30888 8.61288 6.40179 8.67482 6.47677C8.74002 6.54849 8.83782 6.58435 8.96822 6.58435C9.11165 6.58435 9.21434 6.5436 9.27628 6.4621C9.33822 6.37734 9.37734 6.26487 9.39364 6.12469C9.40994 5.98126 9.41809 5.81989 9.41809 5.64059C9.41809 5.46129 9.40831 5.3097 9.38875 5.18582C9.36919 5.05868 9.32844 4.96251 9.2665 4.89731C9.20456 4.82885 9.10676 4.79462 8.97311 4.79462C8.86553 4.79462 8.77425 4.82885 8.69927 4.89731C8.62429 4.96251 8.56887 5.03749 8.53301 5.12225H8.08802V3H9.79462V3.52323H8.56235L8.52812 4.61858C8.59332 4.55012 8.67319 4.49633 8.76773 4.45721C8.86553 4.41809 8.97637 4.39853 9.10024 4.39853C9.3154 4.39853 9.48329 4.44906 9.60391 4.55012C9.72779 4.65118 9.81418 4.78973 9.86308 4.96577C9.91524 5.14181 9.94132 5.34393 9.94132 5.57213C9.94132 5.77425 9.92665 5.96333 9.89731 6.13936C9.86797 6.31214 9.81581 6.46373 9.74083 6.59413C9.66911 6.72127 9.56968 6.8207 9.44254 6.89242C9.3154 6.96414 9.15403 7 8.95844 7Z" fill="white"/>
</g>
<defs>
<clipPath id="clip0_4142_16733">
<rect width="18" height="20" fill="white"/>
</clipPath>
</defs>
</svg>
