<svg width="22" height="14" viewBox="0 0 22 14" fill="none" xmlns="http://www.w3.org/2000/svg">
<g clip-path="url(#clip0_3863_27534)">
<path d="M19.315 4.65939C19.1895 4.04157 18.8511 3.73607 18.3098 3.73359C17.3247 3.72924 16.339 3.73173 15.3539 3.73297C15.2857 3.73297 15.2168 3.7429 15.1156 3.75036C15.1156 3.87578 15.1156 3.98693 15.1156 4.09745C15.1156 5.64976 15.1168 7.20146 15.1156 8.75377C15.1144 9.69944 14.5663 10.2614 13.641 10.2626C11.9037 10.2651 10.167 10.2632 8.42963 10.2632C8.37903 10.2632 8.32783 10.2651 8.27723 10.262C7.98951 10.2465 7.80297 10.0701 7.79688 9.80996C7.79078 9.53551 7.97854 9.33868 8.28516 9.33496C8.97582 9.32626 9.66648 9.33185 10.3571 9.33185C11.444 9.33185 12.5309 9.33309 13.6178 9.33123C14.0451 9.33061 14.2024 9.16917 14.2024 8.73142C14.2036 6.33092 14.2036 3.93042 14.2024 1.52993C14.2024 1.08534 14.0531 0.930734 13.6209 0.930113C9.88288 0.928871 6.14429 0.928871 2.4063 0.930113C1.98264 0.930113 1.8278 1.09466 1.8278 1.53676C1.82658 3.27535 1.8278 5.01332 1.82719 6.75191C1.82719 6.84505 1.83268 6.93881 1.82292 7.03132C1.79366 7.29397 1.64797 7.44424 1.38707 7.45976C1.13409 7.47466 0.948777 7.30205 0.918907 7.03257C0.910983 6.96116 0.91464 6.88789 0.91464 6.81524C0.91464 5.05616 0.913421 3.29708 0.91464 1.538C0.91403 0.55259 1.45534 0.00120869 2.42215 0.000587764C6.16014 -3.3161e-05 9.89874 -3.3161e-05 13.6367 0.000587764C14.5682 0.000587764 15.1119 0.554453 15.115 1.50012C15.1162 1.92173 15.115 2.34396 15.115 2.80158C15.2503 2.80158 15.3582 2.80158 15.4667 2.80158C16.4116 2.80158 17.3564 2.80406 18.3007 2.80096C19.1297 2.79848 19.7119 3.18531 20.0557 3.94781C20.6226 5.2058 21.1895 6.46442 21.7467 7.72676C21.8454 7.95029 21.9491 8.19432 21.9582 8.43275C21.9893 9.26852 22.0277 10.1099 21.9704 10.9419C21.9216 11.6454 21.3309 12.113 20.6269 12.1279C20.1605 12.1378 19.6936 12.1297 19.2163 12.1297C19.0364 12.8227 18.6768 13.3641 18.0629 13.7088C16.7999 14.4178 15.2015 13.7715 14.7803 12.3688C14.7248 12.1838 14.6529 12.1266 14.4688 12.1266C12.153 12.1322 9.83656 12.131 7.52074 12.1291C7.38175 12.1291 7.28726 12.1366 7.23057 12.3154C6.88798 13.3958 6.05224 14.0068 4.97388 13.99C3.96014 13.9745 3.13963 13.3126 2.81899 12.2521C2.80985 12.2229 2.79704 12.1949 2.77388 12.1366C2.27036 12.1366 1.74977 12.1546 1.33708 11.7466C0.932318 11.3461 0.885989 10.8426 0.91525 10.2608C0.749442 10.2608 0.601922 10.2682 0.455011 10.2589C0.192279 10.2434 0.00757442 10.0565 0.000259372 9.80996C-0.00766526 9.56221 0.166677 9.34737 0.430628 9.33868C0.907325 9.32254 1.38768 9.30763 1.86133 9.35234C2.00458 9.366 2.18075 9.55414 2.25025 9.70627C2.33681 9.89503 2.24842 10.1217 2.04299 10.1956C1.69003 10.3222 1.82902 10.6004 1.84731 10.8134C1.86864 11.0531 2.04786 11.1859 2.29718 11.1872C2.45872 11.1878 2.62027 11.1872 2.77449 11.1872C3.20913 9.94781 3.98696 9.32192 5.06105 9.33247C6.11747 9.34303 6.90627 9.98941 7.2897 11.1704H14.7011C15.1211 9.95899 15.8946 9.33185 16.9584 9.33247C18.0227 9.33247 18.7957 9.96023 19.2199 11.1847C19.6966 11.1847 20.1843 11.212 20.6665 11.1679C20.8097 11.1549 21.0463 10.9463 21.0505 10.8202C21.0773 10.0472 21.0493 9.27162 21.0383 8.49733C21.0383 8.47001 21.0164 8.44331 20.9944 8.39363C20.3818 8.39363 19.7631 8.39363 19.145 8.39363C18.5762 8.39363 18.0075 8.39922 17.4387 8.39177C16.8889 8.38432 16.517 8.01114 16.5103 7.46038C16.503 6.83946 16.503 6.21853 16.5103 5.59761C16.5164 5.04809 16.8919 4.66684 17.4351 4.66001C18.0544 4.65256 18.6731 4.65815 19.315 4.65815V4.65939ZM15.5904 11.6777C15.5959 12.4557 16.2055 13.0673 16.9693 13.0617C17.7246 13.0562 18.3379 12.4216 18.3305 11.6529C18.3232 10.8842 17.699 10.2583 16.9456 10.2645C16.1909 10.2707 15.585 10.9028 15.5898 11.6783L15.5904 11.6777ZM5.03911 13.0617C5.8017 13.0593 6.40519 12.4408 6.40458 11.6622C6.40458 10.8891 5.79012 10.2626 5.03362 10.2639C4.28139 10.2651 3.66205 10.8997 3.66388 11.6678C3.6651 12.4383 4.28261 13.0642 5.03911 13.0617ZM17.4314 7.43306H20.6037C20.344 6.84629 20.1057 6.28932 19.8466 5.74166C19.8118 5.66839 19.6765 5.61003 19.5857 5.6063C19.2205 5.59078 18.8548 5.60009 18.489 5.60009C18.1379 5.60009 17.7868 5.60009 17.4314 5.60009V7.43306Z" fill="white"/>
<path d="M7.16983 5.54794C7.36673 5.77892 7.54412 5.977 7.70992 6.18501C7.91718 6.44455 7.90194 6.7159 7.68127 6.89597C7.47706 7.06299 7.22408 7.02636 7.01134 6.78855C6.80042 6.55322 6.59682 6.31043 6.31702 6.07821C6.31702 6.21295 6.32311 6.34831 6.3158 6.48243C6.29812 6.79538 6.1189 6.99345 5.85739 6.9978C5.591 7.00214 5.40264 6.81462 5.39959 6.49361C5.39044 5.58457 5.38984 4.67554 5.4002 3.7665C5.40447 3.41692 5.56783 3.27287 5.92261 3.26231C6.18596 3.25424 6.44991 3.25548 6.71386 3.26231C7.31857 3.27659 7.72455 3.59016 7.88 4.15644C8.01289 4.64014 7.80197 5.13254 7.32649 5.45045C7.28565 5.47777 7.24359 5.50323 7.17044 5.5498L7.16983 5.54794ZM6.33348 4.71652C6.57243 4.65008 6.76689 4.60599 6.9516 4.53397C6.97537 4.52465 6.96806 4.30981 6.93819 4.29926C6.75165 4.23468 6.55537 4.20115 6.33348 4.15086V4.71652Z" fill="white"/>
<path d="M11.9242 5.60004V6.06511C12.1924 6.06511 12.4515 6.06139 12.7106 6.06573C13.0782 6.07194 13.2805 6.234 13.2866 6.51901C13.2934 6.81084 13.0739 6.9934 12.7002 6.9965C12.304 7.00023 11.9078 7.00395 11.5121 6.99402C11.1689 6.98594 11.0031 6.82326 11.0001 6.47679C10.9922 5.57644 10.9922 4.67672 11.0001 3.77638C11.0031 3.43984 11.1604 3.27281 11.4841 3.26288C11.9206 3.24984 12.3576 3.25046 12.7941 3.26164C13.1025 3.26971 13.2952 3.46902 13.2873 3.73789C13.2799 4.00302 13.0812 4.17874 12.7703 4.18495C12.4984 4.18992 12.2266 4.18619 11.9346 4.18619V4.65872C12.14 4.65872 12.3387 4.65437 12.5369 4.65996C12.849 4.66803 13.0398 4.84065 13.0471 5.11323C13.055 5.40259 12.8642 5.587 12.5344 5.59818C12.343 5.60439 12.1516 5.59942 11.9242 5.59942V5.60004Z" fill="white"/>
<path d="M9.28758 5.60014V6.06583C9.57408 6.06583 9.84474 6.06025 10.1154 6.06708C10.4543 6.07577 10.6567 6.24777 10.6634 6.52035C10.6701 6.79791 10.4488 6.99225 10.105 6.9966C9.69905 7.00219 9.29246 7.00405 8.88647 6.99536C8.52681 6.98791 8.36466 6.82398 8.36223 6.45702C8.35613 5.56723 8.35552 4.67807 8.36223 3.78828C8.36527 3.4356 8.52377 3.27167 8.86757 3.26298C9.30404 3.2518 9.74111 3.25118 10.1776 3.26422C10.4732 3.27291 10.6774 3.49272 10.6628 3.74978C10.6488 4.00126 10.4519 4.17884 10.1642 4.18567C9.88132 4.1925 9.59847 4.18691 9.29367 4.18691V4.65944C9.50337 4.65944 9.70393 4.65509 9.90448 4.66068C10.2117 4.66937 10.4104 4.84882 10.4171 5.11582C10.4245 5.39834 10.2251 5.58586 9.89899 5.59952C9.7978 5.60387 9.696 5.60076 9.5942 5.60076C9.50337 5.60076 9.41193 5.60076 9.28697 5.60076L9.28758 5.60014Z" fill="white"/>
<path d="M3.68029 4.18761V4.65952C3.89731 4.65952 4.09847 4.65517 4.29841 4.66076C4.60504 4.66945 4.80376 4.85014 4.81047 5.11714C4.81778 5.3978 4.6154 5.58594 4.28988 5.5996C4.18869 5.60394 4.08689 5.60022 3.9857 5.60022C3.89487 5.60022 3.80404 5.60022 3.66201 5.60022C3.66201 5.87653 3.66383 6.14042 3.66201 6.40369C3.65896 6.78743 3.48766 7.00351 3.19506 6.99792C2.91648 6.99233 2.73909 6.77439 2.73787 6.41735C2.73482 5.55924 2.73421 4.70112 2.73787 3.843C2.7397 3.44685 2.90673 3.26802 3.28711 3.26057C3.69309 3.2525 4.09908 3.2525 4.50506 3.26057C4.83729 3.2674 5.03358 3.45244 5.02992 3.73309C5.02626 4.01437 4.83119 4.18078 4.49226 4.18575C4.23014 4.18948 3.96802 4.18637 3.68029 4.18637V4.18761Z" fill="white"/>
<path d="M1.61036 7.92553C1.96514 7.92553 2.32052 7.91808 2.6753 7.92802C2.99778 7.93733 3.18248 8.10684 3.19284 8.37881C3.20382 8.66133 3.0118 8.86437 2.6814 8.86934C1.96148 8.88052 1.24095 8.8799 0.520414 8.86934C0.192456 8.86437 -0.0080981 8.66071 -0.000783056 8.38502C0.00653199 8.11057 0.208305 7.93423 0.544188 7.92678C0.898968 7.91932 1.25436 7.92491 1.60914 7.92553H1.61036Z" fill="white"/>
</g>
<defs>
<clipPath id="clip0_3863_27534">
<rect width="22" height="14" fill="white"/>
</clipPath>
</defs>
</svg>
