<svg width="18" height="21" viewBox="0 0 18 21" fill="none" xmlns="http://www.w3.org/2000/svg">
<path d="M15.6346 0.444092C16.2393 0.444092 16.6926 0.936655 16.6926 1.50768C16.6926 2.0787 16.239 2.5657 15.629 2.5657C15.019 2.5657 14.5654 2.10098 14.5654 1.50768C14.5654 0.914376 15.0301 0.444092 15.629 0.444092H15.6346ZM15.629 0.634433C15.1476 0.634433 14.8006 1.02626 14.8006 1.50768C14.8006 1.9891 15.159 2.36979 15.6348 2.36979C16.1107 2.36979 16.4577 2.00024 16.4577 1.50768C16.4577 1.01512 16.1051 0.634433 15.6348 0.634433H15.6293H15.629ZM16.2056 2.06756C16.0264 2.06756 15.9034 2.0339 15.8082 1.89393C15.7411 1.79876 15.6908 1.69245 15.6571 1.63651C15.6348 1.58614 15.5956 1.58057 15.5508 1.58057H15.5227V1.77648C15.5227 1.92759 15.5339 1.92759 15.6683 1.93873V2.06199H15.1139V1.93873C15.2595 1.92759 15.2762 1.92759 15.2762 1.77648V1.22217C15.2762 1.07106 15.2595 1.06549 15.1195 1.0541V0.936655H15.685C15.8697 0.936655 16.0824 0.981455 16.0824 1.22774C16.0824 1.36771 15.9872 1.45731 15.8528 1.50768C15.9424 1.65879 16.0095 1.74839 16.1216 1.88279C16.1664 1.92759 16.2056 1.95568 16.239 1.97239L16.2054 2.06756H16.2056ZM15.5842 1.45731C15.6346 1.45731 15.7017 1.44617 15.7298 1.42365C15.7913 1.38442 15.8194 1.32848 15.8194 1.25002C15.8194 1.08777 15.6905 1.0541 15.6179 1.0541C15.5452 1.0541 15.5227 1.0822 15.5227 1.15485V1.45707H15.5842V1.45731Z" fill="white"/>
<path d="M11.0823 15.3854C11.0775 15.3854 11.0726 15.3854 11.0676 15.3854L9.15178 15.3595C8.8762 15.3559 8.61732 15.2464 8.42238 15.0517C8.22744 14.8568 8.11822 14.5979 8.11435 14.3223L8.08964 12.5276L6.35913 12.6448C6.05328 12.6654 5.78883 12.4346 5.76825 12.129C5.74742 11.8234 5.97845 11.5587 6.28406 11.5381L8.25335 11.4047C8.49406 11.3885 8.7338 11.4728 8.91131 11.6365C9.08882 11.7999 9.19247 12.0322 9.19561 12.2734L9.22274 14.2514L11.0237 14.2756V12.1939C11.0237 11.9106 11.1637 11.6461 11.3981 11.487C11.6323 11.3279 11.9294 11.295 12.1927 11.3994C12.5983 11.5599 13.211 11.7658 13.8268 11.8343C14.4806 11.907 14.9541 11.8067 15.2335 11.5362C15.7907 10.9971 16.0717 10.2702 15.967 9.63957C15.8728 9.07145 15.4631 8.60165 14.7821 8.28103C14.601 8.19578 14.4642 8.04492 14.3968 7.85627C14.3293 7.66738 14.3394 7.46348 14.4257 7.28234C14.5816 6.95421 14.9102 6.10953 14.5952 5.35229C14.3683 4.80693 13.8319 4.38193 13.0005 4.08891C12.7564 4.00294 12.5838 3.79032 12.5501 3.53411C12.4108 2.47948 11.8389 1.20328 9.90467 1.11198C9.13192 1.07566 8.41342 1.47571 7.70872 2.33564C7.09677 3.08223 6.52598 4.15042 6.01235 5.51115C5.11827 7.87879 4.71555 10.3128 4.71144 10.337L4.70708 10.3644L4.69981 10.3912L4.10239 12.6233C4.02005 12.9308 3.7883 13.1669 3.4822 13.2548C3.17611 13.3428 2.85427 13.2657 2.62131 13.0485L0.176646 10.7712C-0.047599 10.5625 -0.0599494 10.2113 0.148797 9.98732C0.357544 9.76307 0.708684 9.75072 0.932687 9.95947L3.12114 11.998L3.62097 10.1304C3.67085 9.83354 4.08011 7.4923 4.96862 5.13361C5.52511 3.65641 6.15668 2.48021 6.84588 1.63772C7.77652 0.499787 8.82341 -0.0501687 9.95674 0.0035919C10.6869 0.0379793 11.3303 0.21258 11.8696 0.522309C12.3242 0.783362 12.7041 1.13959 12.9993 1.58105C13.2972 2.02664 13.5018 2.54753 13.6096 3.13285C14.6167 3.53678 15.2921 4.13904 15.6195 4.92608C16.0174 5.88263 15.7828 6.86073 15.5638 7.43781C15.9433 7.65576 16.2584 7.91875 16.5032 8.22218C16.7984 8.58785 16.9861 9.00365 17.0614 9.4577C17.1452 9.96286 17.0832 10.5041 16.8819 11.0228C16.6943 11.5064 16.3911 11.9595 16.0051 12.3332C15.5202 12.8022 14.8746 12.9662 14.2092 12.9662C13.4788 12.9662 12.7247 12.7688 12.1331 12.561V14.3339C12.1331 14.6175 12.0219 14.8834 11.82 15.0827C11.6216 15.2784 11.3598 15.3857 11.0818 15.3857L11.0823 15.3854Z" fill="white"/>
<path d="M6.83945 17.6299C6.76195 17.3713 6.70214 17.2287 6.57088 17.0993C6.41566 16.9165 6.22459 16.8586 5.56202 16.8586H4.91132C4.63066 16.8586 4.60692 16.8766 4.60692 17.0727V18.5976H5.50245C6.32024 18.5976 6.36819 18.5351 6.48153 18.1116H6.74428V19.3958H6.47571C6.36819 18.941 6.32049 18.8696 5.50269 18.8696H4.60717V20.0065C4.60717 20.586 4.68466 20.6262 5.50269 20.6708V20.858H2.98926V20.6708C3.69977 20.6306 3.77726 20.586 3.77726 20.0065V17.4607C3.77726 16.8855 3.69977 16.8499 3.01323 16.8141V16.6179H7.01308C7.02494 16.8586 7.06684 17.2732 7.10849 17.5989L6.83993 17.6302L6.83945 17.6299Z" fill="white"/>
<path d="M11.2714 17.6785C11.1051 17.2593 10.8111 16.7868 10.0051 16.7868C9.28882 16.7868 8.95003 17.1392 8.95003 17.4957C8.95003 17.9548 9.39125 18.1778 10.1715 18.4408C10.9837 18.7174 11.8279 19.0249 11.8279 19.7427C11.8279 20.4605 10.9709 21 9.66635 21C9.26993 21 8.95003 20.9509 8.70714 20.893C8.464 20.8395 8.32984 20.7859 8.23395 20.7547C8.17001 20.6254 8.02932 20.0323 7.97168 19.7158L8.25937 19.6579C8.4192 20.0725 8.8861 20.7547 9.86445 20.7547C10.5616 20.7547 10.9709 20.4559 10.9709 19.9878C10.9709 19.5197 10.4592 19.2923 9.73029 19.0247C9.0653 18.7929 8.15064 18.4675 8.15064 17.7494C8.15064 17.0985 8.90523 16.559 10.1524 16.559C10.6064 16.559 11.0348 16.6348 11.393 16.7149C11.4313 16.9467 11.4761 17.2143 11.5594 17.6424L11.2717 17.678L11.2714 17.6785Z" fill="white"/>
<path d="M16.9758 19.7386C16.8794 20.0508 16.6818 20.5634 16.5564 20.7732C16.3442 20.8177 15.7078 20.9603 15.1726 20.9603C13.3116 20.9603 12.4824 19.8234 12.4824 18.7935C12.4824 17.4201 13.6828 16.5195 15.3557 16.5195C15.9728 16.5195 16.4934 16.6755 16.6959 16.7067C16.7537 17.0768 16.8068 17.3577 16.8501 17.7277L16.6331 17.7722C16.4355 17.0499 15.9534 16.7646 15.1676 16.7646C13.9381 16.7646 13.2825 17.6831 13.2825 18.6552C13.2825 19.8859 14.0972 20.7061 15.2303 20.7061C15.9776 20.7061 16.3873 20.336 16.7683 19.6628L16.9756 19.7386H16.9758Z" fill="white"/>
</svg>
