<svg width="22" height="22" viewBox="0 0 22 22" fill="none" xmlns="http://www.w3.org/2000/svg">
<path d="M2.75 2.75V7.33333M2.75 7.33333H7.33333M2.75 7.33333L5.5 4.85071C6.95958 3.54435 8.88703 2.75 11 2.75C15.5563 2.75 19.25 6.44365 19.25 11C19.25 15.5564 15.5563 19.25 11 19.25C7.07376 19.25 3.7881 16.5073 2.95443 12.8333" stroke="white" stroke-width="0.916667" stroke-linecap="round" stroke-linejoin="round"/>
<path d="M13.1247 14.48V12.888H11.1807V11.944L12.8687 8H14.1567V12.008H14.8207V12.888H14.1567V14.48H13.1247ZM12.1007 12.008H13.1247V9.192L12.1007 12.008Z" fill="white"/>
<path d="M9 14.48V9.224C8.872 9.304 8.136 9.472 8 9.536V8.712C8.296 8.608 8.984 8.32 9.256 8H10.112V14.48H9Z" fill="white"/>
</svg>
