<svg width="20" height="20" viewBox="0 0 20 20" fill="none" xmlns="http://www.w3.org/2000/svg">
<g clip-path="url(#clip0_3863_27562)">
<path d="M17.0752 2.93226C16.1605 2.01705 15.095 1.29723 13.9084 0.792906C12.6833 0.272261 11.3824 0.00543385 10.0425 -6.78307e-06C8.69368 -0.00639361 7.38455 0.252628 6.15112 0.767359C4.96028 1.26411 3.88937 1.97778 2.96797 2.88897C2.04728 3.79921 1.32175 4.86108 0.811721 6.04477C0.283718 7.26939 0.0109641 8.57159 0.00031885 9.91495C-0.0103264 11.2732 0.245632 12.591 0.760624 13.8322C1.25787 15.0303 1.97465 16.1071 2.89109 17.0327C3.80941 17.9602 4.88198 18.6893 6.07874 19.1995C7.31713 19.7275 8.63477 19.9969 9.99452 19.9998H9.99807C15.5111 19.9998 19.998 15.5193 20.0001 10.011C20.001 7.3342 18.9623 4.82016 17.0752 2.93226ZM17.519 4.60442L4.39254 17.3608C3.72449 16.8473 3.14302 16.2675 2.66257 15.6359L15.6389 2.66188C16.3585 3.21541 16.9906 3.86852 17.519 4.60442ZM14.994 2.21362L2.21523 14.9913C0.185546 11.9389 -0.0628429 7.04727 3.3881 3.52812C5.32577 1.55247 7.69657 0.726436 9.95715 0.726436C11.8101 0.726436 13.5893 1.28185 14.994 2.21362ZM5.01303 17.789L9.82372 13.1145C9.80953 13.212 9.83555 13.317 9.90439 13.4097L9.94981 13.471C10.0255 13.5734 10.1038 13.6794 10.1887 13.7785C10.2264 13.8225 10.2313 13.8521 10.2105 13.9098C10.0518 14.351 10.0066 14.8129 10.0764 15.2834C10.1873 16.0312 10.5793 16.6973 11.1802 17.159C11.6956 17.555 12.3183 17.7651 12.9615 17.7651C13.0674 17.7651 13.1741 17.7594 13.2808 17.7478C13.4005 17.7348 13.5477 17.6988 13.6236 17.533C13.6884 17.3918 13.6652 17.2534 13.5529 17.1096C13.3875 16.8981 13.2106 16.6701 13.0381 16.435C13.0088 16.395 12.9877 16.3392 12.983 16.2892C12.957 16.0148 12.9333 15.7352 12.9106 15.4649C12.8964 15.2962 12.8822 15.1276 12.8673 14.9591C12.8602 14.8794 12.8758 14.8205 12.9113 14.7931C12.9458 14.7663 13.005 14.7661 13.0779 14.7921C13.4613 14.9293 13.907 15.0897 14.3411 15.2529C14.387 15.2702 14.4383 15.309 14.475 15.3542C14.5758 15.4786 14.6756 15.6077 14.7723 15.7329C14.8485 15.8315 14.9273 15.9335 15.0063 16.0328C15.1052 16.1573 15.2369 16.2173 15.3675 16.1979C15.4983 16.1785 15.6072 16.0825 15.6658 15.9347C15.8508 15.4679 15.9114 14.9766 15.8454 14.4737C15.7493 13.7418 15.3838 13.0802 14.8161 12.6104C14.2484 12.1409 13.5302 11.9055 12.7928 11.9479C12.7743 11.9486 12.7353 11.9313 12.718 11.911C12.6431 11.823 12.5709 11.7286 12.5014 11.6375C12.4699 11.5961 12.4382 11.5549 12.4063 11.5138C12.2575 11.3231 12.0346 11.2824 11.8643 11.4151C11.6918 11.5495 11.6741 11.77 11.8205 11.9637C11.9871 12.1839 12.1378 12.3807 12.2806 12.565C12.3705 12.6809 12.4947 12.7294 12.6497 12.7086C13.7092 12.5674 14.6846 13.172 15.0217 14.1788C15.1099 14.442 15.1444 14.7051 15.1262 14.9776C15.0711 14.9028 15.0212 14.8368 14.9637 14.7739C14.9131 14.7188 14.8319 14.645 14.7314 14.6071C14.4019 14.483 14.0653 14.3614 13.7397 14.2438C13.5931 14.1908 13.4464 14.1378 13.3 14.0844C13.1278 14.0217 12.9496 14.0118 12.771 14.0553C12.4195 14.1409 12.0696 14.4915 12.1314 15.059C12.1723 15.4353 12.2016 15.8202 12.2298 16.1923C12.2364 16.281 12.2433 16.3697 12.2501 16.4584C12.2612 16.6013 12.3048 16.7134 12.3873 16.8113C12.4316 16.8636 12.4727 16.918 12.5181 16.9786C12.2239 16.917 11.9601 16.8018 11.6999 16.6223C10.88 16.0562 10.5573 14.908 10.9654 14.0084C11.0538 13.8135 11.0337 13.6536 10.9005 13.4902C10.8208 13.3922 10.7428 13.2893 10.6673 13.19C10.6096 13.1138 10.5497 13.0348 10.4892 12.9584C10.3969 12.8418 10.2675 12.7888 10.1421 12.8046L17.9271 5.2405C19.7784 8.19737 19.9577 12.9378 16.7197 16.3557C13.2233 20.0461 8.204 19.8704 5.01256 17.789H5.01303Z" fill="white"/>
<path d="M9.11117 7.20792C9.03027 7.09887 8.94676 6.98603 8.85663 6.8803C8.82328 6.84126 8.81925 6.81453 8.83818 6.75634C9.0596 6.07248 9.03429 5.3995 8.76319 4.75585C8.51102 4.15738 8.09585 3.6734 7.56217 3.35642C7.03015 3.04039 6.40681 2.90556 5.75982 2.96659C5.63728 2.97818 5.48659 3.01366 5.40711 3.18658C5.32266 3.37014 5.409 3.51562 5.48139 3.60929C5.64911 3.82597 5.82866 4.05897 6.00395 4.2941C6.02666 4.32438 6.04251 4.36365 6.04558 4.39606C6.06167 4.56755 6.07634 4.74213 6.09053 4.91102C6.11324 5.18258 6.1369 5.46337 6.16718 5.73918C6.1764 5.82221 6.15819 5.88537 6.11632 5.9173C6.07421 5.94924 6.00631 5.94995 5.92943 5.9192C5.66969 5.81511 5.40214 5.71978 5.14358 5.62729C4.99005 5.57241 4.83108 5.51564 4.6759 5.45792C4.63829 5.44397 4.5976 5.41345 4.56992 5.37821C4.4611 5.24077 4.35276 5.09908 4.24796 4.96212C4.17747 4.8701 4.10721 4.77808 4.03624 4.68654C3.93783 4.55975 3.79802 4.49612 3.66271 4.51693C3.52834 4.53751 3.41976 4.63402 3.36441 4.78187C3.03299 5.66845 3.09023 6.50868 3.53473 7.27888C4.10437 8.266 4.97846 8.76583 6.13429 8.76583C6.17214 8.76583 6.2107 8.76536 6.24926 8.76417C6.32756 8.76204 6.36068 8.776 6.39664 8.82639C6.54875 9.03975 6.70795 9.24129 6.82955 9.39292C6.88159 9.45797 6.94546 9.50883 7.00933 9.53674C7.05475 9.55638 7.10183 9.56584 7.14819 9.56584C7.25938 9.56584 7.36725 9.51143 7.44058 9.41161C7.54325 9.27157 7.53804 9.10575 7.42615 8.95625C7.36252 8.87157 7.29628 8.78712 7.23193 8.70551C7.11933 8.5624 7.00294 8.41432 6.90051 8.26222C6.76094 8.05476 6.57075 7.97694 6.30178 8.01691C5.99567 8.06257 5.69003 8.03158 5.39339 7.92442C4.57583 7.62945 4.08213 7.04493 3.926 6.18697C3.90282 6.05947 3.88153 5.89909 3.90093 5.72499C3.92529 5.75574 3.94706 5.78484 3.96598 5.81535C4.06888 5.98094 4.21461 6.08833 4.43839 6.16379C4.85285 6.30335 5.26967 6.46066 5.67253 6.61276L5.70021 6.62317C5.99898 6.736 6.32023 6.69768 6.55916 6.52121C6.79643 6.34593 6.92086 6.06515 6.90099 5.75125C6.86739 5.22303 6.81937 4.69813 6.77301 4.20587C6.76567 4.12899 6.73161 4.04289 6.67152 3.94945C6.62539 3.87801 6.57359 3.80989 6.51894 3.73916C6.89767 3.81959 7.22413 3.98375 7.5125 4.23804C8.20656 4.84999 8.4313 5.84043 8.07149 6.70241C8.00525 6.8609 8.0211 7.00448 8.11833 7.12891C8.18172 7.21028 8.24512 7.29402 8.30663 7.37492C8.37854 7.47001 8.45306 7.56818 8.52829 7.66375C8.67117 7.84494 8.89141 7.87688 9.06386 7.74157C9.22354 7.61596 9.24506 7.38769 9.11401 7.21075L9.11188 7.20792H9.11117Z" fill="white"/>
<path d="M9.91017 5.09344C10.291 5.40072 10.604 5.64247 10.8945 5.85394C10.9548 5.89771 11.0239 5.92018 11.0942 5.92018C11.1339 5.92018 11.1741 5.91308 11.2131 5.89842C11.3302 5.85465 11.4178 5.75223 11.4471 5.62473C11.4828 5.46861 11.4287 5.33425 11.2862 5.22543C11.1332 5.10834 10.9804 4.99101 10.8252 4.87179L10.6833 4.76298L12.2393 2.74545C12.3122 2.80175 12.3844 2.85758 12.4558 2.91316C12.7082 3.10903 12.9469 3.29425 13.1948 3.47544C13.2797 3.53742 13.4032 3.57408 13.5097 3.56841C13.658 3.5606 13.7718 3.45486 13.8066 3.29235C13.8406 3.13434 13.7867 2.99974 13.6464 2.89258C13.429 2.72653 13.2088 2.55668 12.9956 2.39228C12.8038 2.24444 12.6117 2.09636 12.4194 1.94899C12.2261 1.80091 12.0139 1.82717 11.8656 2.01783C11.6333 2.31611 11.3986 2.62055 11.1717 2.91506L10.7424 3.47213C10.4599 3.83831 10.1772 4.20449 9.89527 4.57137C9.74836 4.76251 9.75428 4.96736 9.91041 5.09344H9.91017Z" fill="white"/>
<path d="M18.1607 8.48806C18.0788 8.36127 17.9941 8.23377 17.9123 8.11053L17.8811 8.06346C17.8219 7.97451 17.763 7.88533 17.7041 7.79615C17.5312 7.535 17.3526 7.2651 17.1737 7.00135C17.076 6.85729 16.8984 6.8062 16.7318 6.87432C16.57 6.94056 16.4787 7.10141 16.51 7.26581C16.522 7.32944 16.5521 7.3971 16.6013 7.47232C16.8837 7.90331 17.138 8.28652 17.3788 8.64395C17.4082 8.68747 17.4082 8.69788 17.3784 8.73502C17.2281 8.92308 17.0838 9.1109 16.9313 9.30936C16.8884 9.36519 16.8454 9.42125 16.8016 9.47778C16.7867 9.4669 16.7725 9.45673 16.7586 9.44585C16.6114 9.33254 16.4645 9.21923 16.3176 9.10569C16.03 8.88357 15.7324 8.65412 15.439 8.42916C15.2552 8.28818 15.0395 8.3116 14.9021 8.48759C14.771 8.65577 14.8036 8.86607 14.9834 9.01131C15.0532 9.06761 15.1254 9.12296 15.1951 9.17666L15.2888 9.2488C15.7265 9.5866 16.1641 9.92439 16.602 10.2619C16.6973 10.3355 16.7931 10.3719 16.8825 10.3719C16.9866 10.3719 17.0824 10.3225 17.1591 10.2243C17.4638 9.83403 17.7871 9.41462 18.1479 8.942C18.2593 8.79605 18.2633 8.6475 18.1604 8.48806H18.1607Z" fill="white"/>
</g>
<defs>
<clipPath id="clip0_3863_27562">
<rect width="20" height="20" fill="white"/>
</clipPath>
</defs>
</svg>
