<svg width="22" height="22" viewBox="0 0 22 22" fill="none" xmlns="http://www.w3.org/2000/svg">
<path d="M2.75 2.75V7.33333M2.75 7.33333H7.33333M2.75 7.33333L5.5 4.85071C6.95958 3.54435 8.88703 2.75 11 2.75C15.5563 2.75 19.25 6.44365 19.25 11C19.25 15.5564 15.5563 19.25 11 19.25C7.07376 19.25 3.7881 16.5073 2.95443 12.8333" stroke="white" stroke-width="0.916667" stroke-linecap="round" stroke-linejoin="round"/>
<path d="M13.401 14.2498C12.7503 14.2498 12.249 14.0018 11.897 13.5058C11.5503 13.0045 11.377 12.2872 11.377 11.3538C11.377 10.4045 11.5503 9.68715 11.897 9.20182C12.249 8.71115 12.7503 8.46582 13.401 8.46582C14.057 8.46582 14.5583 8.71115 14.905 9.20182C15.2516 9.68715 15.425 10.4018 15.425 11.3458C15.425 12.2845 15.249 13.0045 14.897 13.5058C14.5503 14.0018 14.0516 14.2498 13.401 14.2498ZM13.401 13.5538C13.8116 13.5538 14.1156 13.3752 14.313 13.0178C14.5156 12.6605 14.617 12.1032 14.617 11.3458C14.617 10.5832 14.5156 10.0285 14.313 9.68182C14.1156 9.32982 13.8116 9.15382 13.401 9.15382C12.9956 9.15382 12.6916 9.32982 12.489 9.68182C12.2863 10.0285 12.185 10.5805 12.185 11.3378C12.185 12.1005 12.2863 12.6605 12.489 13.0178C12.697 13.3752 13.001 13.5538 13.401 13.5538Z" fill="white"/>
<path d="M8.5465 14.2498C8.1625 14.2498 7.7945 14.1938 7.4425 14.0818C7.0905 13.9645 6.79717 13.7992 6.5625 13.5858L6.8505 12.9538C7.11183 13.1565 7.3785 13.3058 7.6505 13.4018C7.9225 13.4978 8.21317 13.5458 8.5225 13.5458C8.91717 13.5458 9.21583 13.4632 9.4185 13.2978C9.6265 13.1325 9.7305 12.8952 9.7305 12.5858C9.7305 12.2818 9.6265 12.0525 9.4185 11.8978C9.21583 11.7378 8.9145 11.6578 8.5145 11.6578H7.6425V10.9858H8.4505C8.79183 10.9858 9.06383 10.9005 9.2665 10.7298C9.46917 10.5538 9.5705 10.3165 9.5705 10.0178C9.5705 9.74582 9.47717 9.53782 9.2905 9.39382C9.10383 9.24449 8.83717 9.16982 8.4905 9.16982C7.90383 9.16982 7.38917 9.37515 6.9465 9.78582L6.6665 9.15382C6.88517 8.93515 7.1625 8.76715 7.4985 8.64982C7.8345 8.52715 8.1865 8.46582 8.5545 8.46582C9.11983 8.46582 9.56517 8.59649 9.8905 8.85782C10.2158 9.11382 10.3785 9.47115 10.3785 9.92982C10.3785 10.2765 10.2798 10.5725 10.0825 10.8178C9.8905 11.0632 9.6265 11.2258 9.2905 11.3058V11.2178C9.6905 11.2818 9.99717 11.4418 10.2105 11.6978C10.4292 11.9485 10.5385 12.2632 10.5385 12.6418C10.5385 13.1432 10.3598 13.5378 10.0025 13.8258C9.6505 14.1085 9.16517 14.2498 8.5465 14.2498Z" fill="white"/>
</svg>
