<svg width="28" height="30" viewBox="0 0 28 30" fill="none" xmlns="http://www.w3.org/2000/svg">
<g clip-path="url(#clip0_7494_13585)">
<path d="M24.8275 25.3293C25.5236 26.0776 26.1856 26.7889 26.9013 27.5582C26.0566 27.4872 25.3191 27.4248 24.5527 27.3596C24.6897 28.2543 24.8166 29.0802 24.9573 29.9989C24.2322 29.2666 23.6202 28.5879 22.9423 27.9832C22.2694 27.3828 21.5298 26.8571 20.7974 26.2806C20.9004 26.0152 21.0034 25.7071 21.1397 25.4149C21.2325 25.2155 21.1832 25.1154 21.0027 25.0103C19.6155 24.2025 18.1501 23.6007 16.576 23.2686C12.928 22.4978 9.53023 23.1685 6.33619 25.0306C6.29486 25.0545 6.25426 25.0813 6.21583 25.1103C6.19697 25.1241 6.18465 25.1459 6.14477 25.1923C6.2122 25.3641 6.28689 25.5526 6.36012 25.7412C6.43408 25.9304 6.50731 26.1197 6.56895 26.2799C5.83153 26.8614 5.08396 27.3958 4.40237 28.0035C3.73238 28.6009 3.1291 29.2738 2.41126 29.9989C2.54976 29.086 2.67447 28.2609 2.81079 27.3617C2.05742 27.4234 1.31927 27.4843 0.469463 27.5539C1.18441 26.7838 1.85004 26.0675 2.5367 25.3279C2.37283 25.0494 2.21621 24.7355 2.01319 24.4556C1.83409 24.2098 1.88775 24.0676 2.10817 23.8943C2.73393 23.402 3.34591 22.8915 3.99197 22.3651C3.91076 22.2999 3.82519 22.2259 3.73456 22.1599C3.22772 21.7887 2.74263 21.3812 2.20461 21.0614C1.77318 20.8047 1.64339 20.4618 1.61294 20.0028C1.5687 19.3284 1.49257 18.6563 1.41281 17.9848C1.39396 17.8239 1.32942 17.6586 1.24894 17.5157C0.863914 16.8319 0.456412 16.1605 0.0829889 15.4702C0.0039537 15.3238 -0.0235998 15.1026 0.022081 14.9438C0.218581 14.26 0.463663 13.5908 0.664514 12.9085C0.744274 12.6373 0.805182 12.3414 0.786329 12.063C0.733397 11.293 0.623183 10.5265 0.563 9.75649C0.550674 9.60059 0.618108 9.40264 0.718896 9.28083C1.08797 8.83417 1.46647 8.39114 1.87977 7.98654C2.3344 7.54133 2.62372 7.02796 2.78614 6.41526C2.93768 5.84461 3.13491 5.28556 3.33576 4.73014C3.38144 4.60325 3.50398 4.46838 3.62652 4.41038C4.34654 4.07031 5.08033 3.75997 5.8018 3.42208C5.9809 3.33796 6.15492 3.21325 6.28979 3.06896C6.80968 2.51281 7.32014 1.94796 7.81756 1.37224C7.98433 1.17864 8.16198 1.1112 8.41213 1.11628C9.16115 1.13078 9.9109 1.13078 10.6599 1.11555C10.8695 1.1112 11.0914 1.06335 11.2842 0.981413C11.9955 0.680499 12.6924 0.345506 13.4058 0.0511183C13.5617 -0.013415 13.7872 -0.0192157 13.9417 0.0438674C14.6334 0.328104 15.3049 0.660921 15.9966 0.945158C16.2446 1.0474 16.5274 1.10178 16.7964 1.11048C17.4845 1.13296 18.1748 1.13803 18.8622 1.11048C19.2008 1.0967 19.4437 1.19024 19.6293 1.4665C19.6895 1.55569 19.7845 1.62094 19.8454 1.71013C20.7293 2.99717 21.983 3.76577 23.4266 4.26246C23.8102 4.39442 24.0408 4.60978 24.1438 5.02018C24.2779 5.55747 24.5056 6.07084 24.6448 6.60668C24.7775 7.11715 25.0443 7.52175 25.4047 7.89372C25.8332 8.33603 26.2443 8.79719 26.6359 9.2714C26.7425 9.40047 26.8092 9.61219 26.7969 9.77897C26.7396 10.5374 26.6388 11.2922 26.5743 12.05C26.5561 12.2602 26.5728 12.4872 26.6337 12.688C26.8534 13.4153 27.0898 14.1382 27.3378 14.8561C27.4234 15.104 27.411 15.3049 27.2653 15.5304C27.0166 15.9154 26.8317 16.344 26.5634 16.7138C26.0529 17.4178 25.8644 18.2067 25.8303 19.0529C25.8245 19.1972 25.7723 19.3444 25.7883 19.4843C25.8949 20.4277 25.4127 20.9991 24.639 21.4363C24.2105 21.6785 23.8334 22.0106 23.4339 22.3035C23.415 22.3173 23.4049 22.3412 23.3802 22.3746C24.0952 22.951 24.8116 23.5282 25.541 24.117C25.2843 24.5535 25.0523 24.9465 24.8275 25.3286V25.3293ZM13.9837 19.2944C16.1837 19.2944 18.5489 19.8556 20.7931 20.9273C21.0773 21.0629 21.2311 21.0324 21.4319 20.8033C24.1271 17.7253 24.9145 14.2194 23.7138 10.3126C22.2034 5.39795 17.0146 2.32283 11.9419 3.17844C7.7407 3.88686 3.89553 7.24839 3.22119 12.121C2.76076 15.4463 3.71933 18.3793 5.99105 20.8707C6.16579 21.0621 6.30284 21.0527 6.51964 20.9497C8.78701 19.8694 11.1718 19.29 13.983 19.2944H13.9837ZM7.63773 23.8501C8.05249 23.8095 8.18445 23.6319 8.06554 23.2425C7.9778 22.9568 7.96403 22.6486 7.9169 22.3506C7.84801 21.9163 7.77913 21.482 7.71024 21.0469C7.42021 21.0991 7.30274 21.176 7.3796 21.4689C7.49852 21.9199 7.54927 22.3891 7.62831 22.8509C7.61091 22.8567 7.5935 22.8633 7.5761 22.8691C7.3651 22.3688 7.15337 21.8692 6.93367 21.3485C6.74514 21.4479 6.61028 21.5197 6.47614 21.5907C6.57982 22.1092 6.67844 22.603 6.77777 23.096C6.7524 23.1025 6.72702 23.1091 6.70164 23.1163C6.49716 22.674 6.29269 22.2317 6.08096 21.7749C5.92869 21.8612 5.80687 21.9308 5.67636 22.0048C6.06283 22.7908 6.43335 23.5434 6.79445 24.2779C7.25343 24.1851 7.34335 23.9632 7.2092 23.5659C7.09391 23.2251 7.06491 22.8546 6.99748 22.4971C7.01198 22.4927 7.02648 22.4884 7.04098 22.4833C7.23821 22.9343 7.43543 23.3853 7.63846 23.8494L7.63773 23.8501ZM17.1829 21.656C17.1698 21.6545 17.1575 21.6538 17.1444 21.6524C17.1038 21.3195 17.0371 20.9867 17.0291 20.6525C17.019 20.2334 16.8247 20.084 16.407 20.1471C16.3127 20.92 16.2207 21.698 16.122 22.4746C16.088 22.74 16.1888 22.8277 16.4614 22.7596C16.5412 22.1998 16.6202 21.6422 16.6992 21.0846C16.8 21.5958 16.8776 22.099 16.9044 22.6037C16.9204 22.9053 17.048 23.001 17.3533 22.9865C17.5026 22.1287 17.6505 21.2782 17.8028 20.4052C17.6585 20.3747 17.5476 20.3508 17.4062 20.3211C17.3286 20.7859 17.2561 21.2209 17.1843 21.6553L17.1829 21.656ZM13.5393 21.031C13.6778 20.8424 13.7481 20.3515 13.5567 20.1137C13.2137 19.6888 12.7627 19.939 12.3059 19.9049C12.3617 20.8221 12.4146 21.685 12.4698 22.5812C12.614 22.5696 12.7243 22.5609 12.8512 22.5508V21.4406C13.1035 21.3681 13.2057 21.466 13.2188 21.698C13.2326 21.9511 13.2558 22.2027 13.279 22.455C13.2819 22.4862 13.313 22.5145 13.3406 22.5595C13.4414 22.5515 13.5436 22.5435 13.7031 22.5312C13.6509 22.0504 13.6016 21.5987 13.54 21.031H13.5393ZM10.2698 20.2297C10.3989 21.1296 10.5214 21.9903 10.6498 22.8857C10.8093 22.8364 10.9188 22.8024 11.0457 22.7625C11.0094 22.4695 10.9608 22.1969 10.95 21.9235C10.9463 21.8271 11.0362 21.7263 11.0841 21.6277C11.1653 21.7104 11.2937 21.7814 11.3183 21.8786C11.385 22.1433 11.4082 22.4188 11.4532 22.7197C11.5924 22.6987 11.7048 22.6813 11.8643 22.6573C11.7932 22.2506 11.7635 21.8634 11.6446 21.5059C11.596 21.3609 11.5866 21.2717 11.6018 21.1209C11.6308 20.8366 11.6315 20.4958 11.496 20.2674C11.4155 20.1326 11.0507 20.1456 10.8122 20.1333C10.6498 20.1253 10.4837 20.1884 10.2698 20.229V20.2297ZM9.22206 20.5422C8.62386 20.6278 8.61734 20.6307 8.63691 21.1506C8.66084 21.7756 8.68984 22.4014 8.72247 23.0264C8.729 23.1511 8.76308 23.2751 8.78918 23.4281C8.93638 23.3578 9.04006 23.3077 9.1365 23.2613C9.11837 23.088 9.10315 22.9467 9.08574 22.7792C9.23729 22.7299 9.37723 22.6834 9.51863 22.637C9.65422 22.8712 9.66292 23.2824 10.1016 22.9575C9.80794 22.1498 9.51355 21.342 9.22206 20.5422ZM15.5616 22.653C15.4992 21.8924 15.4376 21.1876 15.3846 20.4828C15.3418 19.9114 15.3411 19.9063 14.7016 19.9172C14.5297 20.775 14.3564 21.6408 14.1795 22.5247C14.3927 22.5674 14.566 22.6399 14.5892 22.3644C14.6175 22.0338 14.8111 22.0171 15.0808 22.1142C15.1127 22.2701 15.1461 22.4326 15.1831 22.6138C15.2904 22.6254 15.3948 22.6363 15.5616 22.6537V22.653ZM20.4037 24.1699C20.4842 23.2468 21.1092 22.6559 21.7002 21.9975C21.5378 21.9148 21.4145 21.8525 21.2825 21.7858C21.0955 22.0149 20.9185 22.2317 20.7423 22.4471C20.5487 22.0664 21.0143 21.4588 20.2573 21.3181C20.2573 21.4704 20.25 21.6023 20.2587 21.7328C20.3029 22.4072 20.3653 23.083 20.0615 23.7232C19.9273 24.006 20.0709 24.1184 20.4037 24.1699ZM18.7759 21.1085C18.6135 21.851 18.4576 22.566 18.2944 23.3135C18.4293 23.3614 18.5439 23.402 18.678 23.4499C18.8673 22.6936 19.0449 21.9859 19.2211 21.2833C19.3886 21.334 19.5126 21.371 19.6685 21.4182C19.696 21.2847 19.7185 21.1745 19.7446 21.0469C19.2849 20.8867 18.8571 20.7366 18.3894 20.5734C18.3764 20.7416 18.3669 20.8533 18.3582 20.9621C18.5054 21.0136 18.6178 21.0534 18.7759 21.1093V21.1085Z" fill="white"/>
<path d="M20.1502 17.8604C20.1604 17.8567 20.1379 17.872 20.1154 17.872C19.1852 17.8654 19.2287 18.0532 19.2192 17.0345C19.2163 16.7328 19.2214 16.4305 19.2192 16.1288C19.2142 15.4857 19.0525 15.3414 18.3571 15.4052V17.856H17.4551V12.1031C18.0547 12.1031 18.6457 12.0647 19.2294 12.1154C19.6702 12.1539 20.0074 12.4439 20.0647 12.8993C20.1191 13.3372 20.1241 13.794 20.0611 14.2298C20.0255 14.4763 19.8102 14.696 19.6637 14.9491C20.1053 15.1819 20.1321 15.6749 20.1459 16.1607C20.1618 16.7133 20.1495 17.2672 20.1495 17.8611L20.1502 17.8604ZM18.3672 12.8137V14.5373C18.6616 14.5518 19.0329 14.6286 19.109 14.3212C19.2055 13.934 19.1888 13.4917 19.0996 13.1001C19.0699 12.9696 18.6674 12.9232 18.3665 12.8137H18.3672Z" fill="white"/>
<path d="M14.312 12.0778C14.6818 12.0778 15.0089 12.0589 15.3315 12.0894C15.4258 12.0981 15.5679 12.2359 15.5846 12.333C15.8369 13.7955 16.0718 15.2609 16.3104 16.7256C16.3699 17.0918 16.4279 17.4587 16.4909 17.8539H15.5955C15.5462 17.5631 15.4823 17.2709 15.4519 16.9751C15.4323 16.788 15.3547 16.7401 15.1764 16.7329C14.3954 16.701 14.3969 16.6952 14.2838 17.4732C14.2649 17.6023 14.2316 17.7292 14.204 17.8633H13.373C13.6863 15.9346 13.9959 14.0261 14.3128 12.0785L14.312 12.0778ZM15.3032 15.9193C15.1756 15.0238 15.0524 14.1588 14.9291 13.2945C14.9081 13.2959 14.8863 13.2974 14.8653 13.2981C14.7449 14.1639 14.6246 15.0304 14.5006 15.9193H15.3032Z" fill="white"/>
<path d="M12.5896 17.8577H10.1279V12.0983H12.5831V12.8901H11.0459V14.4142H12.2496V15.2698H11.0444V17.0296H12.5896V17.8577Z" fill="white"/>
<path d="M9.19829 12.0768C8.88795 13.0237 8.57616 13.9098 8.31078 14.8104C8.19694 15.1961 8.14328 15.608 8.12225 16.0111C8.0918 16.6129 8.11427 17.2169 8.11427 17.8485H7.25286C7.17745 16.8783 7.19268 15.8842 7.00126 14.9314C6.80838 13.9721 6.40958 13.0549 6.08691 12.076C6.36172 12.076 6.59013 12.0862 6.81708 12.0731C7.00778 12.0615 7.08464 12.1311 7.1354 12.3204C7.29274 12.9084 7.47837 13.4892 7.72272 14.0715C7.86629 13.5813 8.01494 13.0933 8.1527 12.6017C8.30062 12.0746 8.29627 12.0731 8.84444 12.076C8.93943 12.076 9.03514 12.076 9.19829 12.076V12.0768Z" fill="white"/>
<path d="M12.8174 20.995C12.808 20.8188 12.7877 20.6419 12.7942 20.4657C12.7964 20.3997 12.8486 20.2968 12.8994 20.2808C12.9639 20.2605 13.1089 20.296 13.1191 20.3345C13.1626 20.5005 13.2025 20.6818 13.1778 20.8471C13.1648 20.9312 13.011 20.9936 12.9211 21.0661C12.8863 21.0429 12.8522 21.019 12.8174 20.9957V20.995Z" fill="white"/>
<path d="M10.8595 21.252C10.829 21.0076 10.8015 20.7879 10.7725 20.5588C10.9878 20.4638 11.1575 20.4428 11.214 20.7168C11.2677 20.9772 11.2945 21.228 10.8595 21.2512V21.252Z" fill="white"/>
<path d="M9.0582 22.4613C9.03282 22.0008 9.01397 21.6673 8.99512 21.3345C9.01905 21.3258 9.04225 21.3178 9.06618 21.3091C9.16841 21.6042 9.28225 21.8964 9.36129 22.198C9.37289 22.2416 9.21482 22.3293 9.0582 22.4613Z" fill="white"/>
<path d="M15.0838 21.6802H14.7285C14.8003 21.2952 14.867 20.9377 14.9344 20.5795C14.9569 20.5788 14.9787 20.5781 15.0012 20.5773C15.028 20.9312 15.0541 21.2857 15.0838 21.6809V21.6802Z" fill="white"/>
<path d="M12.1426 10.4998V9.78188L13.6078 7.51815C13.7152 7.35209 13.8153 7.19336 13.9081 7.04196C14.0058 6.89055 14.084 6.73426 14.1426 6.57309C14.2061 6.40704 14.2378 6.22633 14.2378 6.03097C14.2378 5.81119 14.1987 5.64269 14.1206 5.52547C14.0425 5.40826 13.9204 5.34965 13.7543 5.34965C13.598 5.34965 13.4759 5.39361 13.388 5.48152C13.3001 5.56943 13.239 5.6842 13.2048 5.82584C13.1755 5.96748 13.1609 6.12376 13.1609 6.2947V6.54379H12.1646V6.28005C12.1646 5.9284 12.2158 5.62071 12.3184 5.35698C12.4259 5.08835 12.5943 4.87834 12.8239 4.72694C13.0534 4.57553 13.3538 4.49983 13.725 4.49983C14.2329 4.49983 14.6139 4.63658 14.8679 4.91009C15.1218 5.18359 15.2488 5.56455 15.2488 6.05295C15.2488 6.29715 15.2146 6.51937 15.1462 6.71961C15.0779 6.91497 14.9875 7.10301 14.8752 7.28371C14.7628 7.46442 14.6407 7.65002 14.5089 7.84049L13.2928 9.68665H15.095V10.4998H12.1426Z" fill="white"/>
</g>
<defs>
<clipPath id="clip0_7494_13585">
<rect width="27.3911" height="30" fill="white"/>
</clipPath>
</defs>
</svg>
