<svg width="17" height="18" viewBox="0 0 17 18" fill="none" xmlns="http://www.w3.org/2000/svg">
<g clip-path="url(#clip0_4668_17694)">
<path d="M3.94035 15.0233C3.7481 14.8942 3.56439 14.7709 3.3705 14.6407C3.48651 14.4703 3.59615 14.3092 3.71778 14.1305C3.55458 14.1021 3.41407 14.0805 3.27465 14.0527C1.59217 13.7182 0.30671 12.4104 0.0478387 10.734C-0.291453 8.53679 1.21748 6.63067 3.19714 6.21064C3.30896 6.18686 3.44366 6.19115 3.52572 6.12874C3.60741 6.06652 3.63464 5.93581 3.68856 5.83675C4.50329 4.34099 5.75662 3.44569 7.45962 3.1705C8.15672 3.05785 8.84547 3.11489 9.52587 3.29262C9.57143 3.3046 9.61772 3.31408 9.65694 3.32302C10.4951 2.27108 11.5627 1.84086 12.8672 2.22709C13.9906 2.55968 14.6799 3.35145 14.8367 4.49835C15.0223 5.85534 14.4009 6.82932 13.1835 7.47751C13.1944 7.60161 13.2062 7.73625 13.219 7.8827C13.2666 7.90058 13.3153 7.92097 13.3652 7.93706C14.708 8.36907 15.6896 9.65346 15.5745 11.2061C15.475 12.5463 14.4833 13.7643 13.015 14.0662C12.7919 14.1119 12.5593 14.1209 12.3304 14.1304C12.0768 14.1409 11.8221 14.1386 11.5683 14.1304C11.4465 14.1264 11.3714 14.1658 11.3004 14.2659C10.7425 15.0519 10.1783 15.8339 9.61591 16.6167C9.5816 16.6646 9.54529 16.7111 9.47721 16.754C9.47721 16.324 9.47721 15.894 9.47721 15.4639C9.47721 15.0339 9.47721 14.5949 9.47721 14.1497C9.41894 14.1432 9.37265 14.1339 9.32599 14.1337C8.99923 14.1323 8.67265 14.1364 8.34588 14.1309C8.24349 14.1291 8.17941 14.1609 8.1235 14.2469C7.98626 14.4574 7.83903 14.6614 7.69507 14.8676C7.6613 14.9159 7.62518 14.9627 7.58052 15.0232C7.391 14.896 7.20819 14.7732 7.00941 14.64C7.12033 14.4781 7.22634 14.3233 7.34525 14.1497C7.27554 14.1425 7.22979 14.1341 7.18386 14.1337C6.99035 14.1321 6.7961 14.142 6.60331 14.13C6.44828 14.1203 6.34807 14.1636 6.26347 14.3013C6.1137 14.545 5.93961 14.7743 5.76388 15.0264C5.56891 14.8955 5.38248 14.7703 5.18878 14.6401C5.30187 14.4753 5.40644 14.3231 5.5219 14.1548C5.46616 14.1457 5.42786 14.1341 5.38937 14.1339C5.15955 14.1321 4.92936 14.1384 4.69972 14.1305C4.5937 14.127 4.5347 14.17 4.48024 14.2523C4.34154 14.4619 4.19559 14.6666 4.05163 14.8728C4.01786 14.9211 3.98137 14.9674 3.93962 15.0233H3.94035ZM11.8929 13.4469C12.2166 13.4466 12.4971 13.4559 12.7781 13.4112C14.3811 13.1569 15.3345 11.448 14.683 9.97944C14.3286 9.18033 13.7018 8.70004 12.8405 8.51068C12.6058 8.45919 12.5352 8.35691 12.519 8.12749C12.4971 7.8135 12.4816 7.49575 12.4188 7.18838C12.0523 5.39222 10.48 3.99267 8.62708 3.82316C7.36558 3.70782 6.24822 4.06705 5.29334 4.89298C4.77505 5.34126 4.3911 5.8861 4.14349 6.5198C4.06561 6.719 3.93799 6.81824 3.72396 6.82092C3.65806 6.82164 3.59216 6.83737 3.52663 6.84774C1.21929 7.21323 -0.0316742 9.77559 1.14486 11.7643C1.81201 12.8919 2.83987 13.4444 4.16473 13.4475C5.87081 13.4512 7.57689 13.4485 9.28297 13.448C9.34161 13.448 9.40024 13.4419 9.46451 13.4384V12.5402H7.02593C7.1697 12.2707 11.3808 6.42915 11.4935 6.34904V10.5554C12.317 10.5604 13.1237 10.5538 13.9641 10.5595C13.2657 11.5331 12.5908 12.474 11.8929 13.4469ZM10.1672 11.8586C10.168 12.7871 10.1669 13.6878 10.1678 14.5883L10.2097 14.5983C11.003 13.4932 11.7962 12.388 12.614 11.2486H10.7859V8.52606C10.7734 8.52266 10.7609 8.51927 10.7483 8.51587C9.95575 9.62021 9.16334 10.7244 8.34915 11.8587H10.1671L10.1672 11.8586ZM13.0371 6.75297C13.8248 6.36424 14.2734 5.48789 14.1585 4.59973C14.0489 3.75235 13.375 3.03478 12.5058 2.83183C11.6059 2.62173 10.7251 3.05785 10.3551 3.59589C11.0009 3.91417 11.5658 4.33473 12.0314 4.88047C12.5005 5.43049 12.8315 6.05329 13.0371 6.75279V6.75297Z" fill="white"/>
<path d="M15.3026 1.22289C15.4467 1.36826 15.6012 1.52418 15.741 1.66526C15.4331 1.96942 15.1073 2.29146 14.7927 2.60241C14.6563 2.46777 14.4977 2.31113 14.3486 2.16415C14.6567 1.86017 14.9833 1.53813 15.3026 1.22306V1.22289Z" fill="white"/>
<path d="M17.0001 4.57952V5.2261H15.5951C15.5815 5.01511 15.5881 4.79928 15.5919 4.58668C15.7449 4.54591 16.8201 4.54144 17.0001 4.57952Z" fill="white"/>
<path d="M15.7677 8.13089C15.6164 8.2802 15.4592 8.43541 15.3107 8.58203C14.9858 8.2625 14.6579 7.9401 14.3428 7.63004C14.4907 7.48503 14.6512 7.32785 14.8032 7.1789C15.1096 7.48145 15.4367 7.80438 15.7675 8.13089H15.7677Z" fill="white"/>
<path d="M9.71628 2.17702C9.56833 2.32186 9.41184 2.47528 9.26552 2.61868C8.95019 2.30702 8.62651 1.98712 8.28613 1.65078C8.41938 1.50559 8.58494 1.35449 8.73162 1.20733C9.06692 1.53759 9.39096 1.85659 9.71628 2.17702Z" fill="white"/>
<path d="M11.6963 1.38257V0H12.3649V1.38096C12.151 1.39061 11.9316 1.38578 11.6963 1.38274V1.38257Z" fill="white"/>
<path d="M3.51472 15.6458C3.31267 15.9369 3.11952 16.2153 2.91275 16.5134C2.7205 16.3839 2.53515 16.2591 2.33691 16.1257C2.54005 15.8326 2.73285 15.5542 2.93853 15.2576C3.13096 15.3874 3.31667 15.5124 3.51472 15.646V15.6458Z" fill="white"/>
<path d="M6.57963 15.2576C6.78095 15.3933 6.96013 15.5142 7.15528 15.6456C6.95414 15.9353 6.75771 16.2185 6.55294 16.5134C6.36051 16.3839 6.17734 16.2605 5.97656 16.1252C6.17843 15.8346 6.37485 15.5523 6.57963 15.2576Z" fill="white"/>
<path d="M1.90684 16.744C2.10127 16.8751 2.28408 16.9983 2.48268 17.1322C2.28008 17.4239 2.08439 17.7055 1.87998 17.9995C1.6841 17.8673 1.50165 17.7443 1.30469 17.6114C1.50619 17.3211 1.70189 17.0391 1.90684 16.744Z" fill="white"/>
<path d="M4.75986 15.2579C4.95628 15.3903 5.13546 15.5111 5.33515 15.6456C5.13564 15.9335 4.93994 16.2158 4.73372 16.5132C4.54419 16.3859 4.36139 16.2632 4.15625 16.1255C4.35957 15.8332 4.55835 15.5478 4.76004 15.2579H4.75986Z" fill="white"/>
<path d="M4.30281 17.1324C4.10076 17.4235 3.90779 17.7017 3.70102 17.9998C3.5075 17.8695 3.32124 17.7441 3.125 17.612C3.32542 17.3232 3.51839 17.0446 3.72698 16.744C3.9194 16.8737 4.10493 16.9987 4.30299 17.1322L4.30281 17.1324Z" fill="white"/>
<path d="M4.94434 17.6113C5.15147 17.3139 5.34481 17.036 5.54776 16.7444C5.74292 16.876 5.925 16.9987 6.12323 17.132C5.91991 17.4249 5.72458 17.706 5.52126 17.9989C5.32393 17.8662 5.1413 17.7436 4.94434 17.6113Z" fill="white"/>
</g>
<defs>
<clipPath id="clip0_4668_17694">
<rect width="17" height="18" fill="white"/>
</clipPath>
</defs>
</svg>
