<svg width="38" height="38" viewBox="0 0 38 38" fill="none" xmlns="http://www.w3.org/2000/svg">
<g clip-path="url(#clip0_1044_15032)">
<path d="M35.4255 14.3745C35.4255 14.7554 35.4255 15.0392 35.4255 15.3231C35.4255 22.3437 35.4255 29.3642 35.4255 36.3848C35.4255 37.426 35.3542 37.4955 34.3119 37.497C33.5607 37.4984 32.8081 37.4999 32.0569 37.497C31.1703 37.4927 31.0684 37.3913 31.0684 36.4804C31.0669 29.845 31.0669 23.2111 31.0669 16.5757C31.0669 15.8777 31.0669 15.1797 31.0669 14.4339C23.0034 14.4339 14.9894 14.4339 6.89378 14.4339C6.89378 14.7438 6.89378 15.0247 6.89378 15.3071C6.89378 22.2553 6.89378 29.2035 6.89378 36.1517C6.89378 37.497 6.89379 37.497 5.50643 37.497C4.85133 37.497 4.19623 37.4999 3.54259 37.497C2.64292 37.4927 2.53665 37.3913 2.53665 36.4978C2.53519 31.5031 2.53519 26.51 2.53519 21.5153C2.53519 19.1766 2.53519 16.8378 2.53519 14.3832C2.09264 14.3832 1.68502 14.4281 1.29342 14.3673C1.01827 14.3238 0.764969 14.1356 0.50293 14.0125C0.648507 13.7402 0.724208 13.3724 0.949853 13.2088C4.67518 10.5138 8.41944 7.84486 12.1579 5.17015C14.1843 3.72056 16.2239 2.28545 18.2299 0.806899C18.7613 0.414453 19.1456 0.384042 19.7017 0.783729C25.4171 4.8979 31.1499 8.986 36.8784 13.0828C37.0545 13.2088 37.2525 13.3275 37.3792 13.4955C37.6631 13.8749 37.4418 14.3224 36.9308 14.3658C36.4519 14.4064 35.9685 14.3745 35.4255 14.3745ZM35.0296 13.2175C34.753 12.9901 34.6016 12.8511 34.4356 12.7323C29.4583 9.16991 24.4766 5.61473 19.511 2.03927C19.1034 1.74674 18.8501 1.75254 18.4468 2.04216C13.4593 5.63066 8.45729 9.19888 3.46107 12.7743C3.30239 12.8887 3.16118 13.0278 2.93844 13.2175C13.6704 13.2175 24.2728 13.2175 35.0296 13.2175ZM5.71315 14.4339C5.01729 14.4339 4.37675 14.4339 3.72602 14.4339C3.72602 21.7514 3.72602 29.021 3.72602 36.3095C4.40732 36.3095 5.04641 36.3095 5.71315 36.3095C5.71315 29.0138 5.71315 21.7644 5.71315 14.4339ZM32.2607 14.4209C32.2607 21.7572 32.2607 29.0254 32.2607 36.3052C32.9449 36.3052 33.584 36.3052 34.2303 36.3052C34.2303 28.9892 34.2303 21.7238 34.2303 14.4209C33.5651 14.4209 32.9449 14.4209 32.2607 14.4209Z" fill="black"/>
<path d="M18.9797 27.2139C17.6957 27.2139 16.4117 27.2211 15.1277 27.211C14.2571 27.2037 13.8859 26.8388 13.8816 25.98C13.8728 23.7383 13.8728 21.4966 13.8816 19.2549C13.8845 18.386 14.2338 18.0341 15.1248 18.0297C17.6928 18.0182 20.2622 18.0167 22.8302 18.0297C23.7473 18.0341 24.0749 18.3889 24.0778 19.3258C24.0836 21.5198 24.0836 23.7123 24.0778 25.9062C24.0749 26.8576 23.7197 27.2081 22.7603 27.2124C21.4996 27.2182 20.2404 27.2139 18.9797 27.2139ZM20.8766 19.1723C20.8766 19.5691 20.8591 19.9051 20.8809 20.2382C20.9202 20.8435 20.6727 21.1404 20.0395 21.1244C19.3116 21.1056 18.5837 21.1143 17.8558 21.1215C17.3055 21.1273 17.0551 20.8696 17.077 20.3222C17.093 19.9456 17.0799 19.5691 17.0799 19.1941C16.3418 19.1941 15.7056 19.1941 15.0753 19.1941C15.0753 21.5096 15.0753 23.7658 15.0753 26.022C17.7117 26.022 20.2942 26.022 22.8913 26.022C22.8913 23.7195 22.8913 21.4647 22.8913 19.1709C22.2261 19.1723 21.6059 19.1723 20.8766 19.1723ZM19.7061 19.1781C19.1849 19.1781 18.7395 19.1781 18.2634 19.1781C18.2634 19.4504 18.2634 19.6777 18.2634 19.9283C18.7642 19.9283 19.2301 19.9283 19.7061 19.9283C19.7061 19.6676 19.7061 19.4562 19.7061 19.1781Z" fill="black"/>
<path d="M13.2337 37.497C11.9745 37.497 10.7138 37.5014 9.45454 37.4956C8.47771 37.4913 8.1094 37.1567 8.10358 36.2125C8.09047 33.9954 8.09047 31.7783 8.10358 29.5612C8.1094 28.6822 8.46752 28.3216 9.34099 28.3173C11.9337 28.3057 14.525 28.3042 17.1177 28.3187C17.965 28.3231 18.3013 28.6663 18.3057 29.5221C18.3188 31.787 18.3202 34.0534 18.3042 36.3183C18.2984 37.1451 17.9272 37.4869 17.0857 37.4941C15.8017 37.5057 14.5177 37.497 13.2337 37.497ZM9.26529 36.311C11.925 36.311 14.525 36.311 17.157 36.311C17.157 34.0157 17.157 31.7667 17.157 29.4714C16.4772 29.4714 15.8396 29.4714 15.1073 29.4714C15.1073 29.8682 15.0971 30.223 15.1102 30.5764C15.1306 31.1455 14.8875 31.4264 14.2921 31.4091C13.5904 31.3902 12.8873 31.3859 12.1856 31.4105C11.5727 31.4322 11.2801 31.1759 11.2975 30.5619C11.3077 30.2085 11.299 29.8552 11.299 29.4787C10.5653 29.4787 9.92766 29.4787 9.26237 29.4787C9.26529 31.7653 9.26529 33.9983 9.26529 36.311ZM13.9514 29.4657C13.4113 29.4657 12.9644 29.4657 12.4796 29.4657C12.4796 29.7321 12.4796 29.958 12.4796 30.2057C12.9892 30.2057 13.4754 30.2057 13.9966 30.2057C13.9805 29.9363 13.9674 29.7278 13.9514 29.4657Z" fill="black"/>
<path d="M24.6888 37.4971C23.4296 37.4971 22.1689 37.5029 20.9097 37.4942C20.026 37.4884 19.6577 37.1481 19.6533 36.2792C19.6388 34.0143 19.6388 31.7494 19.6548 29.4831C19.6606 28.6765 20.0071 28.3231 20.8063 28.3188C23.4223 28.3043 26.0384 28.3043 28.6544 28.3173C29.4871 28.3217 29.8481 28.6837 29.8539 29.5236C29.87 31.7654 29.87 34.0056 29.8539 36.2474C29.8481 37.1496 29.4711 37.4884 28.5408 37.4928C27.2568 37.5029 25.9728 37.4971 24.6888 37.4971ZM20.8005 36.2951C23.482 36.2951 26.0806 36.2951 28.6646 36.2951C28.6646 33.9839 28.6646 31.735 28.6646 29.4628C27.9905 29.4628 27.3718 29.4628 26.6556 29.4628C26.6556 29.8509 26.6469 30.2057 26.6571 30.5576C26.6745 31.1687 26.3863 31.4308 25.7705 31.4091C25.0688 31.3845 24.3657 31.3888 23.664 31.4077C23.07 31.4236 22.8313 31.147 22.8429 30.5764C22.8502 30.2057 22.8138 29.8335 22.7978 29.4686C22.083 29.4686 21.4628 29.4686 20.799 29.4686C20.8005 31.7639 20.8005 34.0143 20.8005 36.2951ZM25.4924 29.486C24.9451 29.486 24.4807 29.486 23.9653 29.486C23.9828 29.7742 23.9944 29.9972 24.0075 30.2115C24.5476 30.2115 25.0164 30.2115 25.4924 30.2115C25.4924 29.9494 25.4924 29.738 25.4924 29.486Z" fill="black"/>
<path d="M17.6271 23.8817C17.9663 23.8817 18.3244 23.8166 18.6389 23.9035C18.8689 23.9657 19.1935 24.2192 19.2037 24.4031C19.2139 24.5928 18.9096 24.9563 18.7189 24.9722C17.9488 25.0374 17.1685 25.0301 16.3984 24.9722C16.2252 24.9592 15.9253 24.6015 15.953 24.4509C15.9908 24.2394 16.2543 23.9628 16.4698 23.9107C16.8352 23.8224 17.2399 23.8861 17.6271 23.8861C17.6271 23.8832 17.6271 23.8832 17.6271 23.8817Z" fill="black"/>
<path d="M11.8182 35.2974C11.4542 35.2974 11.0685 35.3741 10.7365 35.2713C10.4992 35.1989 10.3377 34.8861 10.1426 34.6805C10.3435 34.5081 10.5327 34.2084 10.7482 34.1881C11.444 34.1244 12.1559 34.1186 12.8503 34.1895C13.0716 34.2113 13.2594 34.5429 13.4632 34.7326C13.2536 34.9209 13.0731 35.2003 12.8285 35.2757C12.5184 35.3698 12.1574 35.2988 11.8182 35.2988C11.8182 35.2988 11.8182 35.2988 11.8182 35.2974Z" fill="black"/>
<path d="M23.3194 34.1635C23.6586 34.1635 24.0152 34.0954 24.3297 34.1852C24.5772 34.2547 24.7693 34.5169 24.9862 34.6935C24.7664 34.8963 24.5655 35.2453 24.3253 35.2728C23.6571 35.3524 22.9685 35.3466 22.3003 35.2728C22.0747 35.2482 21.8854 34.9136 21.6787 34.721C21.8869 34.5357 22.0674 34.2591 22.3105 34.1867C22.6206 34.094 22.9816 34.165 23.3194 34.1635Z" fill="black"/>
</g>
<defs>
<clipPath id="clip0_1044_15032">
<rect width="37" height="37" fill="white" transform="translate(0.5 0.5)"/>
</clipPath>
</defs>
</svg>
