<svg xmlns="http://www.w3.org/2000/svg" width="22" height="22" fill="none" stroke="currentColor" stroke-width="1.6" viewBox="0 0 24 24" aria-hidden="true"><path stroke-linecap="round" stroke-linejoin="round" d="M8.25 18.75a1.5 1.5 0 0 1-3 0m3 0a1.5 1.5 0 0 0-3 0m3 0h6m-9 0H3.38a1.13 1.13 0 0 1-1.13-1.13V14.25m17.25 4.5a1.5 1.5 0 0 1-3 0m3 0a1.5 1.5 0 0 0-3 0m3 0h1.13c.62 0 1.13-.5 1.09-1.12a17.9 17.9 0 0 0-3.21-9.19 2.06 2.06 0 0 0-1.58-.86H14.25M16.5 18.75h-2.25m0-11.18v-.96c0-.57-.42-1.05-.99-1.1a48.55 48.55 0 0 0-10.02 0c-.57.04-.99.53-.99 1.1v7.64m12-6.68v6.68m0 4.5v-4.5m0 0h-12"></path></svg>