<svg width="36" height="36" viewBox="0 0 36 36" fill="none" xmlns="http://www.w3.org/2000/svg">
<g clip-path="url(#clip0_1044_15043)">
<path d="M15.2684 15.6115C16.1489 16.4947 16.8299 17.5685 18.3041 17.4444C18.3041 16.3086 18.3012 15.1551 18.3056 14.0001C18.3086 13.108 18.4061 13.0017 19.2643 13.0017C24.5321 12.9987 29.7999 13.0105 35.0662 12.9884C35.7856 12.9854 36.0013 13.2469 35.9983 13.9425C35.9777 18.9879 35.9895 24.0333 35.9865 29.0772C35.9865 30.0239 35.8698 30.1362 34.9274 30.1376C33.747 30.1391 32.5667 30.1376 31.3923 30.1376C31.3451 30.1923 31.2978 30.2218 31.286 30.2632C30.8428 31.8746 30.0953 32.4668 28.3847 32.4934C26.9326 32.5156 25.4805 32.4979 24.0284 32.4979C23.9294 32.4979 23.8319 32.4934 23.7329 32.4934C21.2261 32.489 21.2276 32.489 21.2128 34.9172C21.2113 35.1136 21.2689 35.3544 21.1773 35.4961C21.0385 35.7133 20.7903 36.0013 20.5923 35.9983C20.4047 35.9954 20.0783 35.6704 20.0605 35.4666C19.9956 34.7163 20.0354 33.9556 20.0354 33.0828C19.3072 33.3353 18.6941 33.5628 18.0737 33.7607C15.9923 34.4268 13.9168 35.1136 11.8206 35.7325C9.62985 36.3779 7.74196 35.8181 6.19087 34.1388C6.14065 34.0856 6.08303 34.0384 6.02394 33.994C6.00917 33.9837 5.97963 33.9926 5.85111 33.9926C5.85111 34.3648 5.84963 34.7429 5.85111 35.1225C5.85259 35.5478 5.78316 35.9584 5.25431 35.9643C4.71512 35.9717 4.66194 35.5641 4.66637 35.1343C4.67376 34.1285 4.66933 33.1212 4.66933 32.1153C4.62353 32.0917 4.58365 32.0503 4.54376 32.0518C3.50675 32.0784 2.91586 31.5747 2.50224 30.6177C1.85964 29.1303 1.11512 27.6844 0.335147 26.262C-0.0637043 25.5339 -0.136088 24.8205 0.273103 24.1692C1.0516 22.9285 1.87885 21.71 2.7903 20.5653C3.42994 19.7633 4.24389 19.0987 5.01795 18.3351C4.54376 17.6409 4.8983 17.1727 5.41828 16.7119C6.00622 16.192 6.55279 15.6263 7.09198 15.1034C6.73597 14.4181 6.4287 13.8081 6.10076 13.2114C6.02542 13.0755 5.89099 12.9175 5.75213 12.8791C4.09173 12.4109 3.81697 10.5794 4.39752 9.30627C4.48763 9.10835 4.42263 8.82772 4.39013 8.58993C4.37093 8.45109 4.22764 8.32407 4.22173 8.18671C4.1331 6.40399 3.81254 4.59321 4.53786 2.87548C5.10806 1.52404 6.29132 0.847582 7.63117 0.459136C9.18225 0.0101326 10.7658 -0.131658 12.3775 0.112045C14.4441 0.422211 15.7707 1.58903 16.3379 3.57705C16.4694 4.03491 16.6452 4.16784 17.0839 4.14273C17.6231 4.11172 18.18 4.0615 18.7045 4.1575C19.2924 4.26385 19.9291 4.41302 20.4077 4.74387C21.2246 5.3066 21.7712 6.12337 21.6175 7.19123C21.4639 8.25761 20.6721 8.78341 19.74 9.05666C18.9231 9.29593 18.0678 9.40227 17.1608 9.57951C17.0101 11.6621 16.8461 13.8288 15.2684 15.6115ZM19.5199 14.2054C19.5199 18.7457 19.5199 23.2165 19.5199 27.8084C21.5319 26.9562 23.6103 27.2029 25.6637 27.1822C27.3255 27.166 27.6121 27.3742 28.2075 28.8985C30.4129 28.8985 32.6125 28.8985 34.8151 28.8985C34.8151 23.9831 34.8151 19.1223 34.8151 14.232C33.2463 14.232 31.7144 14.232 30.1278 14.232C30.1278 14.9129 30.1278 15.548 30.1278 16.1831C30.1278 16.8226 30.1397 17.4622 30.1249 18.1017C30.1057 18.8801 29.7216 19.1592 29.1086 18.7087C27.7924 17.7398 26.5899 17.8787 25.2944 18.7368C24.6414 19.1696 24.2426 18.8786 24.216 18.081C24.2056 17.7856 24.2145 17.4902 24.2145 17.1948C24.2145 16.1993 24.2145 15.2024 24.2145 14.2039C22.5955 14.2054 21.0976 14.2054 19.5199 14.2054ZM5.91463 19.0573C4.71512 20.3393 3.51857 21.5416 2.42099 22.8295C1.93794 23.3952 1.63363 24.1234 1.30716 24.8057C1.20819 25.0125 1.22296 25.3507 1.32341 25.5634C2.1093 27.2295 2.92177 28.8837 3.74902 30.529C3.83026 30.69 4.0548 30.8436 4.2365 30.8791C5.73589 31.1701 7.16879 30.4434 7.88377 29.1023C8.10831 28.6828 8.10683 28.3564 7.83059 27.9576C7.39776 27.3329 7.02994 26.6623 6.63404 26.011C6.40359 25.6328 6.19383 25.2341 6.70938 24.9387C7.23527 24.6374 7.45833 25.0553 7.67401 25.4246C8.3683 26.6136 9.0493 27.8099 9.75394 28.9915C10.3493 29.987 11.3257 30.4345 12.3937 30.1022C14.3156 29.504 16.2153 28.8335 18.1727 28.1777C18.1727 26.6239 18.1727 25.076 18.1727 23.5296C18.1727 21.9596 18.1727 20.3881 18.1727 18.8062C17.6615 18.6807 17.2139 18.5714 16.725 18.4517C16.5241 18.852 16.3365 19.2198 16.1548 19.5905C15.4427 21.0498 15.2138 21.0749 14.2757 19.7943C14.0837 19.5314 13.8828 19.2759 13.6346 18.948C13.3879 19.5669 13.221 20.0838 12.9743 20.5609C12.8443 20.8134 12.5341 21.196 12.379 21.165C12.1131 21.1103 11.8309 20.8164 11.6862 20.5505C11.4129 20.0513 11.2326 19.5004 10.9741 18.8727C10.401 19.6023 9.89428 20.2315 9.40384 20.8725C9.0493 21.3378 8.69034 21.4042 8.22944 21.001C7.51299 20.3674 6.76699 19.7663 5.91463 19.0573ZM26.8336 28.9531C26.8617 28.8925 26.8898 28.832 26.9164 28.7714C26.7214 28.6385 26.5278 28.3904 26.3343 28.3918C24.7153 28.3992 23.0519 28.2353 21.4861 28.5455C19.4268 28.9546 17.4444 29.7462 15.4294 30.3799C14.9139 30.5423 14.3969 30.7048 13.8976 30.9086C12.0259 31.6693 10.3389 31.56 8.95181 29.8275C8.26194 30.9485 7.31799 31.6442 6.01065 31.9809C6.31053 32.3827 6.55722 32.7445 6.83494 33.0798C8.09945 34.607 9.66088 35.2332 11.6212 34.6365C12.9359 34.2363 14.2536 33.8434 15.5713 33.4476C17.8491 32.7637 20.0916 31.8864 22.4167 31.461C24.2529 31.1243 26.191 31.3562 28.0834 31.3104C28.5191 31.3 28.983 31.2616 29.3774 31.1006C29.6832 30.9766 29.9018 30.6413 30.1589 30.3991C30.116 30.337 30.0747 30.275 30.0318 30.213C29.7689 30.2012 29.5045 30.1834 29.2415 30.179C28.011 30.1642 26.7805 30.1509 25.5514 30.1421C25.126 30.1391 24.7507 29.9811 24.8453 29.5276C24.8926 29.2987 25.2678 29.0388 25.5366 28.9797C25.9517 28.8852 26.4008 28.9531 26.8336 28.9531ZM15.6156 6.95639C15.3526 7.30939 15.168 7.56195 14.9759 7.81156C14.1339 8.90305 13.1087 9.54702 11.6433 9.48055C9.90166 9.40079 8.15263 9.48055 6.40655 9.45101C5.8319 9.44215 5.43158 9.57951 5.34294 10.1895C5.25431 10.801 5.25579 11.538 5.95747 11.6576C6.89994 11.8186 7.11857 12.4375 7.41992 13.1538C8.17626 14.9557 9.87507 16.0487 11.6256 15.9438C13.6169 15.8257 14.8947 14.7844 15.5358 12.7166C15.6953 12.2041 15.8209 11.6694 15.8726 11.1362C16.01 9.77447 16.0041 8.41417 15.6156 6.95639ZM8.57364 1.49746C6.86892 1.65845 5.46851 2.79277 5.34442 4.32736C5.25579 5.42771 5.29124 6.54135 5.33408 7.64761C5.34294 7.85882 5.62362 8.20887 5.82009 8.23989C6.80244 8.39497 7.74196 8.28419 8.42296 7.42459C8.68295 7.0967 8.92669 6.75699 9.18373 6.42763C10.333 4.9536 11.7334 3.98617 13.7114 4.13387C14.1974 4.1708 14.6894 4.13978 15.1813 4.13978C15.1 2.85923 14.1177 1.7899 12.7128 1.40145C11.4734 1.05879 10.1513 1.50779 9.5102 2.61701C9.18816 3.17383 9.01828 3.83995 8.88238 4.47949C8.78784 4.92701 8.74647 5.35681 8.18069 5.30069C7.65185 5.24752 7.58685 4.7867 7.69173 4.39677C7.95172 3.41753 8.27671 2.45602 8.57364 1.49746ZM15.4546 5.36568C12.1544 5.13084 10.3242 6.02736 9.47622 8.27533C10.2237 8.27533 10.9653 8.22511 11.6965 8.28863C12.605 8.36543 13.2668 7.97994 13.8207 7.33449C14.3614 6.7053 14.8814 6.05838 15.4546 5.36568ZM25.4007 17.251C26.4126 16.9807 27.9416 16.9821 28.8825 17.2362C28.8825 16.2259 28.8825 15.2186 28.8825 14.2261C27.7052 14.2261 26.5869 14.2261 25.4007 14.2261C25.4007 14.5023 25.4007 14.7416 25.4007 14.9794C25.4007 15.7311 25.4007 16.4829 25.4007 17.251ZM17.1445 8.42303C18.0737 8.18967 18.9925 8.0464 19.8419 7.71999C20.5525 7.44674 20.6204 6.9298 20.2068 6.28731C19.4874 5.16924 17.8314 4.98461 16.8594 5.92397C16.7722 6.00816 16.7072 6.18097 16.7279 6.29618C16.8372 6.94605 16.9761 7.58854 17.1445 8.42303ZM8.73613 19.8505C9.28123 19.1622 9.77758 18.5345 10.3182 17.8521C9.42157 17.2569 8.59432 16.7074 7.89116 16.2422C7.28254 16.7754 6.7404 17.251 6.17019 17.7517C7.03437 18.4577 7.84684 19.1223 8.73613 19.8505ZM15.2477 18.8284C15.945 17.7842 15.8608 17.5257 14.5845 16.7695C14.1516 17.6881 14.2226 17.9067 15.2477 18.8284ZM11.5724 17.1756C11.8324 17.7428 12.0894 18.3041 12.4189 19.0204C12.7113 18.2509 12.9447 17.632 13.221 16.9039C12.5843 17.0073 12.0865 17.09 11.5724 17.1756Z" fill="black"/>
<path d="M23.0791 26.0009C22.6877 26.0009 22.28 26.0688 21.9136 25.9772C21.6684 25.9152 21.4823 25.6242 21.2695 25.4367C21.4645 25.2314 21.6462 24.871 21.8589 24.8503C22.6345 24.7794 23.4233 24.7779 24.1989 24.8488C24.416 24.868 24.6022 25.221 24.8031 25.4219C24.5948 25.6154 24.416 25.9078 24.1723 25.9772C23.831 26.0718 23.4455 26.0009 23.0791 26.0009Z" fill="black"/>
<path d="M22.4567 24.2314C22.3592 24.2314 22.2617 24.2299 22.1642 24.2314C21.7225 24.2447 21.2749 24.2093 21.2793 23.6318C21.2838 23.0543 21.7373 23.0336 22.1745 23.0424C22.4183 23.0484 22.6916 22.973 22.8969 23.0617C23.1657 23.1769 23.5365 23.3851 23.5853 23.6126C23.6813 24.0557 23.3194 24.2344 22.8939 24.2299C22.7477 24.2285 22.6029 24.2299 22.4567 24.2314Z" fill="black"/>
</g>
<defs>
<clipPath id="clip0_1044_15043">
<rect width="36" height="36" fill="white"/>
</clipPath>
</defs>
</svg>
