<svg width="38" height="38" viewBox="0 0 38 38" fill="none" xmlns="http://www.w3.org/2000/svg">
<g clip-path="url(#clip0_1044_15024)">
<path d="M2.36164 13.0757C2.36164 11.7237 2.35586 10.4653 2.36309 9.20694C2.36743 8.41952 2.5786 8.25163 3.34229 8.15803C4.0785 8.0674 4.80748 7.89952 5.53067 7.72569C6.00509 7.61278 6.41297 7.60832 6.58798 8.16249C6.76299 8.71814 6.43611 9.01083 5.97471 9.14751C5.28334 9.35254 4.5804 9.51597 3.88758 9.69574C3.88758 10.7922 3.88758 11.8976 3.88758 13.0742C5.25297 13.0742 6.55038 13.098 7.84489 13.0475C8.03581 13.0401 8.26579 12.7102 8.39018 12.4814C10.6972 8.23678 14.2582 6.02307 18.9401 6.00524C23.6828 5.98741 27.2988 8.2026 29.5942 12.5245C29.8285 12.9673 30.0787 13.098 30.5401 13.0861C31.6929 13.0534 32.8486 13.0757 34.0881 13.0757C34.0881 11.9213 34.0881 10.8189 34.0881 9.70168C28.5557 7.86535 27.792 7.08089 26.1764 1.51691C21.3932 1.51691 16.6013 1.51691 11.8239 1.51691C11.62 2.30285 11.4319 3.06502 11.2251 3.82125C11.0805 4.34719 10.7565 4.66661 10.2083 4.45564C9.69771 4.25804 9.72085 3.84205 9.84669 3.34582C10.0506 2.53759 10.2025 1.71005 10.3023 0.881026C10.3761 0.270399 10.6465 0 11.2323 0C16.4133 0.00297142 21.5957 0.00297142 26.7766 0C27.3682 0 27.6416 0.285256 27.6835 0.895883C27.9771 5.13016 30.6428 7.87129 34.7549 8.16397C35.3985 8.21003 35.6415 8.5354 35.6357 9.16534C35.6242 10.4445 35.6329 11.7252 35.6329 13.0757C35.9525 13.0757 36.2852 13.0653 36.6164 13.0772C37.409 13.1069 37.7055 13.5853 37.3526 14.3118C36.7842 15.4841 36.1651 16.6325 35.6198 17.8166C35.5012 18.0737 35.5041 18.4882 35.6227 18.7452C36.1579 19.907 36.7625 21.0332 37.3251 22.1816C37.72 22.9884 37.4264 23.4623 36.5354 23.4772C35.9091 23.4876 35.2785 23.5188 34.6565 23.4668C34.1272 23.4222 33.9131 23.6302 33.754 24.1383C32.7864 27.2449 31.2778 30.0351 29.046 32.3825C26.3442 35.2232 23.0189 36.9318 19.3306 37.9629C19.0934 38.0297 18.8042 37.9955 18.5612 37.9287C11.4305 35.9393 6.56339 31.4525 4.24484 24.1799C4.07706 23.6555 3.87022 23.4088 3.30179 23.4668C2.72902 23.5247 2.14613 23.4831 1.56758 23.4787C0.527625 23.4712 0.251365 23.024 0.715655 22.088C1.26239 20.9871 1.84384 19.9026 2.35152 18.7823C2.47735 18.503 2.48169 18.0647 2.3573 17.7869C1.86264 16.6875 1.29421 15.6252 0.756154 14.5466C0.238348 13.5096 0.492912 13.0817 1.62543 13.0742C1.86409 13.0742 2.10274 13.0757 2.36164 13.0757ZM25.0034 9.2114C24.5347 9.81608 24.3163 10.5901 23.5671 10.1459C22.7861 9.68237 23.4095 9.07917 23.6279 8.39575C22.329 8.04215 21.0764 7.70043 19.7848 7.34981C19.6778 8.10157 19.8571 8.88603 19.0038 8.89197C18.0998 8.89791 18.3514 8.04066 18.1764 7.34089C16.8906 7.70192 15.638 8.05403 14.3348 8.41952C14.6386 9.1074 15.1737 9.68088 14.439 10.14C13.6608 10.6258 13.4598 9.75368 12.9738 9.22774C12.0264 10.2113 11.1166 11.1562 10.1634 12.1472C10.7883 12.5736 11.4681 12.8172 11.1065 13.5408C10.6726 14.4084 10.0477 13.7443 9.37661 13.5333C9.02948 14.8616 8.69826 16.1348 8.34679 17.4794C9.05552 17.5849 9.86405 17.3739 9.85971 18.2935C9.85537 19.2206 8.99911 18.925 8.34968 19.1478C8.70115 20.4523 9.04684 21.7344 9.4012 23.0508C10.0665 22.77 10.5945 22.2262 11.0443 22.9171C11.578 23.7372 10.7015 23.9675 10.1967 24.4771C11.1427 25.4428 12.0495 26.3713 12.9984 27.34C13.4598 26.7591 13.6883 25.9345 14.4607 26.4352C15.1925 26.9092 14.5923 27.4767 14.3681 28.1572C15.6467 28.5108 16.9022 28.8569 18.2169 29.2209C18.324 28.4974 18.1244 27.707 18.9604 27.6684C19.9164 27.6238 19.6185 28.5524 19.8528 29.2135C21.1213 28.8569 22.3623 28.5093 23.6279 28.1542C23.4022 27.4663 22.7846 26.8646 23.5888 26.4025C24.3366 25.9747 24.5405 26.7769 25.0106 27.3341C25.9536 26.3639 26.8707 25.422 27.8079 24.4578C27.2713 23.969 26.4859 23.7684 26.9083 22.9928C27.361 22.1594 27.9424 22.816 28.6193 23.0285C28.9607 21.7166 29.2962 20.4285 29.6448 19.0869C28.9274 18.977 28.155 19.1775 28.1377 18.3069C28.1203 17.3828 28.9346 17.5953 29.6492 17.4675C29.2962 16.1244 28.9563 14.8363 28.6107 13.5229C27.9439 13.7666 27.3885 14.3713 26.9328 13.6136C26.457 12.8217 27.2583 12.5884 27.8209 12.1174C26.8707 11.1369 25.9667 10.2039 25.0034 9.2114ZM32.445 23.4802C31.7045 23.4802 31.0305 23.44 30.3651 23.501C30.1207 23.5232 29.8314 23.7357 29.6766 23.9482C29.0156 24.8574 28.4935 25.89 27.7472 26.7131C22.1858 32.8505 12.2593 31.4881 8.40609 24.1012C8.28315 23.8664 8.07053 23.5292 7.87527 23.5114C7.12459 23.4415 6.36379 23.4831 5.6001 23.4831C5.61167 23.6213 5.60733 23.6718 5.6218 23.7164C7.74798 30.3575 12.171 34.5116 18.6682 36.4088C18.8837 36.4712 19.147 36.4653 19.3625 36.4014C22.4172 35.5055 25.1914 34.0703 27.5172 31.8105C29.8835 29.5166 31.4369 26.7131 32.445 23.4802ZM2.41805 21.9543C4.16962 21.9543 5.81417 21.9543 7.51801 21.9543C6.81506 19.4925 6.82374 17.0574 7.51222 14.6105C5.80693 14.6105 4.16384 14.6105 2.42673 14.6105C2.94598 15.6416 3.41027 16.6102 3.91651 17.5551C4.18987 18.0633 4.17975 18.5105 3.90928 19.0156C3.40159 19.959 2.93586 20.9247 2.41805 21.9543ZM35.5808 21.9662C35.0514 20.9114 34.6001 19.959 34.0982 19.0379C33.8075 18.5045 33.8148 18.0439 34.1026 17.5121C34.6117 16.5746 35.0688 15.6059 35.5649 14.6149C33.8162 14.6149 32.1731 14.6149 30.475 14.6149C31.191 17.0886 31.1548 19.5178 30.4852 21.9662C32.2035 21.9662 33.8336 21.9662 35.5808 21.9662Z" fill="black"/>
<path d="M8.64315 7.62614C8.31916 7.13735 8.03856 6.88775 7.98649 6.59358C7.90405 6.12855 8.22804 5.84032 8.67352 5.84478C9.12335 5.84923 9.43288 6.16123 9.3432 6.61586C9.28679 6.90557 8.98884 7.14626 8.64315 7.62614Z" fill="black"/>
<path d="M19.7228 13.5468C19.7228 13.942 19.7344 14.3387 19.7214 14.7339C19.6954 15.5153 19.8053 16.0963 20.4576 16.7589C21.1201 17.4304 21.7029 17.5641 22.4912 17.5389C23.1161 17.5181 23.7424 17.5344 24.3686 17.5359C24.8431 17.5374 25.1887 17.7454 25.1989 18.2565C25.209 18.8107 24.8474 19.0246 24.3426 19.0246C23.7655 19.0246 23.1869 19.0246 22.6098 19.0246C21.797 19.0261 21.0752 18.9355 20.4562 19.8507C19.7605 20.8802 18.1289 20.6975 17.3493 19.7303C16.5263 18.7081 16.6825 17.1749 17.7601 16.4811C18.207 16.1928 18.2909 15.8868 18.2822 15.4084C18.2562 14.0742 18.2794 12.7386 18.2707 11.4044C18.2678 10.8755 18.4037 10.4283 18.9939 10.4253C19.584 10.4223 19.7315 10.8651 19.7257 11.397C19.7156 12.1131 19.7228 12.8292 19.7228 13.5468ZM19.8154 18.3902C19.814 18.2862 19.814 18.1822 19.8125 18.0767C19.5218 17.8999 19.2137 17.5656 18.9432 17.5939C18.7031 17.6191 18.2895 18.1049 18.3343 18.2862C18.4052 18.5715 18.7784 18.9206 19.0618 18.9607C19.2831 18.9934 19.5623 18.5967 19.8154 18.3902Z" fill="black"/>
</g>
<defs>
<clipPath id="clip0_1044_15024">
<rect width="37" height="38" fill="white" transform="translate(0.5)"/>
</clipPath>
</defs>
</svg>
