<?xml version="1.0" encoding="UTF-8"?>
<svg xmlns="http://www.w3.org/2000/svg" width="22" height="22" fill="none" stroke="currentColor" stroke-width="1.6" viewBox="0 0 24 24" aria-hidden="true"><path stroke-linecap="round" stroke-linejoin="round" d="M9.81 15.9 9 18.75l-.81-2.85a4.5 4.5 0 0 0-3.09-3.09L2.25 12l2.85-.81a4.5 4.5 0 0 0 3.09-3.09L9 5.25l.81 2.85a4.5 4.5 0 0 0 3.09 3.09L15.75 12l-2.85.81a4.5 4.5 0 0 0-3.09 3.09Zm8.45-7.19L18 9.75l-.26-1.04a3.38 3.38 0 0 0-2.45-2.45L14.25 6l1.04-.26a3.38 3.38 0 0 0 2.45-2.45L18 2.25l.26 1.04a3.38 3.38 0 0 0 2.46 2.45L21.75 6l-1.03.26a3.38 3.38 0 0 0-2.46 2.45Z"></path></svg>
