<svg width="32" height="32" viewBox="0 0 32 32" fill="none" xmlns="http://www.w3.org/2000/svg">
<g clip-path="url(#clip0_1044_15018)">
<path d="M4.0094 26.705C3.69666 26.9638 3.42394 27.2751 3.08117 27.4439C2.79345 27.5852 2.36436 27.6877 2.10541 27.5715C1.85021 27.4564 1.58125 27.0476 1.5725 26.76C1.52371 25.0109 1.53246 23.2592 1.55373 21.51C1.56249 20.8436 2.01284 20.5048 2.68586 20.5923C3.17625 20.6561 3.66288 20.7411 4.01691 20.7949C3.78172 19.2933 3.38141 17.8092 3.34263 16.3163C3.14497 8.69579 9.53872 2.73314 17.1397 3.40955C20.4335 3.70337 23.1956 5.13246 25.4174 7.58678C25.9103 8.13066 25.8927 8.28945 25.3486 8.75331C25.0346 9.02087 24.7193 9.28718 24.309 9.63601C26.0829 9.94483 27.7354 10.2324 29.4355 10.5275C29.4355 8.80832 29.4355 7.13293 29.4355 5.34501C29.0727 5.63883 28.76 5.89013 28.4497 6.14394C27.868 6.62031 27.7705 6.61405 27.2788 6.06267C25.1196 3.64211 22.4651 2.06049 19.3026 1.32156C10.8335 -0.65765 2.24677 5.21998 1.0696 13.802C0.811901 15.6799 0.860689 17.5391 1.28602 19.3883C1.29978 19.4496 1.34357 19.5221 1.32355 19.5683C1.22097 19.8046 1.10213 20.0334 0.98954 20.2648C0.794387 20.096 0.449118 19.9447 0.427851 19.7559C0.246459 18.1693 -0.0725399 16.5639 0.0162794 14.986C0.410337 8.00063 5.32668 2.10175 12.1332 0.497621C17.9791 -0.880202 23.0943 0.620149 27.4052 4.81363C27.554 4.95867 27.6979 5.10995 27.8443 5.25624C27.858 5.26999 27.8805 5.27624 27.9569 5.315C28.2358 5.08495 28.5048 4.76987 28.8463 4.61108C29.1528 4.4673 29.5931 4.36728 29.8734 4.48606C30.1223 4.59108 30.3612 5.01618 30.3787 5.31375C30.4413 6.35149 30.3825 7.39674 30.4188 8.43698C30.4325 8.84083 30.5201 9.26093 30.6677 9.63726C33.1634 16.0225 32.1526 21.7926 27.6516 26.9588C27.6103 27.0063 27.5653 27.0501 27.5228 27.0951C27.2713 27.3602 26.9974 27.6652 26.6358 27.3077C26.2981 26.9738 26.5933 26.71 26.8272 26.4637C28.6324 24.572 29.8884 22.3677 30.5451 19.8359C31.2619 17.0703 31.2107 14.3134 30.37 11.5765C30.3337 11.4589 30.2837 11.3464 30.2211 11.1801C29.4167 11.8178 28.5874 11.1664 27.7204 11.2614C28.4322 13.0668 28.6974 14.8997 28.6199 16.7989C28.3822 22.5603 23.6235 27.779 17.8978 28.5267C13.4755 29.1031 9.71386 27.7978 6.63395 24.567C5.9922 23.8931 6.01347 23.7906 6.72277 23.1854C6.98923 22.9579 7.25694 22.7291 7.63473 22.4053C5.86085 22.0952 4.2008 21.8064 2.50572 21.51C2.50572 23.2392 2.50572 24.9146 2.50572 26.725C2.88352 26.4112 3.17875 26.1661 3.47398 25.9211C4.0807 25.4147 4.17328 25.421 4.68993 25.9998C6.58141 28.1166 8.8707 29.6307 11.6016 30.4159C16.339 31.7775 20.7487 31.0473 24.8019 28.2254C24.8707 28.1779 24.9357 28.1253 25.0021 28.0753C25.2773 27.869 25.5788 27.639 25.8677 28.0066C26.163 28.3804 25.8627 28.6105 25.585 28.818C23.5484 30.3409 21.2866 31.3686 18.7722 31.7662C13.1415 32.6552 8.31902 31.046 4.31339 26.9888C4.22582 26.8976 4.132 26.8175 4.0094 26.705ZM24.6493 8.10315C21.5469 4.97617 17.9128 3.74588 13.6582 4.52731C6.45756 5.85138 2.23551 13.8808 5.16906 20.5923C5.32293 20.9449 5.52308 21.1012 5.89838 21.1475C6.51761 21.2237 7.1506 21.2912 7.73606 21.4875C8.05881 21.5951 8.44662 21.9164 8.53043 22.2165C8.60674 22.4865 8.36155 22.9004 8.15889 23.1792C7.94748 23.468 7.61722 23.6718 7.31073 23.9369C10.0604 26.735 13.3054 28.0128 17.1709 27.6615C24.9445 26.9538 29.8946 18.5819 26.7734 11.4377C26.6171 11.0814 26.4094 10.9326 26.0404 10.8863C25.4424 10.8113 24.8294 10.7513 24.2627 10.5662C23.9312 10.4575 23.5109 10.1636 23.4308 9.87107C23.352 9.581 23.596 9.1509 23.7999 8.85208C23.9913 8.57326 24.3178 8.38572 24.6493 8.10315Z" fill="black"/>
<path d="M15.4958 22.3265C14.415 22.0277 13.4342 21.8689 12.5485 21.4901C10.353 20.5499 9.27845 18.2118 9.77634 15.6537C10.2505 13.2206 11.4989 11.1564 12.9676 9.22221C13.6319 8.34701 14.3962 7.54057 15.1818 6.77039C15.7698 6.19525 16.1801 6.194 16.7656 6.75538C19.3376 9.21846 21.3566 12.0491 22.1498 15.58C22.8428 18.6694 21.1765 21.2463 18.1904 21.9289C17.8489 22.0065 17.5399 22.0402 17.4311 21.6414C17.3185 21.235 17.615 21.0925 17.9477 21.0175C21.1152 20.3123 21.7507 17.5654 21.144 15.3549C20.3108 12.3242 18.5382 9.84861 16.369 7.63059C16.1688 7.42554 15.9612 7.26425 15.686 7.54557C13.3504 9.92863 11.3613 12.548 10.7221 15.9025C10.1716 18.792 11.8104 20.8212 14.7415 21.1475C14.9654 21.1725 15.1893 21.1888 15.4495 21.2138C15.5321 20.246 15.6422 19.3821 14.7402 18.6607C13.8345 17.9355 13.0727 17.0315 12.2445 16.2088C11.9881 15.955 11.7541 15.64 12.1107 15.3774C12.2583 15.2686 12.7161 15.3799 12.89 15.5424C13.7357 16.3351 14.5326 17.1791 15.4871 18.1481C15.4871 16.8177 15.4983 15.6837 15.4733 14.5522C15.4695 14.4009 15.2931 14.2371 15.1668 14.1084C14.6589 13.5857 14.111 13.0969 13.6394 12.543C13.5017 12.3817 13.5668 12.0479 13.5393 11.7928C13.7932 11.8303 14.1172 11.7816 14.2861 11.9216C14.6664 12.2342 14.9716 12.6405 15.3069 13.0094C15.3695 12.9856 15.432 12.9631 15.4946 12.9393C15.4946 12.2479 15.4946 11.5565 15.4946 10.8651C15.4946 10.5113 15.4971 10.1562 15.4946 9.80235C15.4908 9.44852 15.5246 9.07468 15.9687 9.06718C16.414 9.05967 16.4603 9.42476 16.4591 9.78359C16.4553 10.8238 16.4578 11.8653 16.4578 13.0769C16.8844 12.6593 17.2121 12.3379 17.5399 12.0154C17.7964 11.7628 18.0678 11.4452 18.4268 11.8203C18.7509 12.1579 18.4681 12.4242 18.2254 12.6655C17.725 13.1669 17.2172 13.662 16.728 14.1734C16.6079 14.2997 16.4741 14.4797 16.4716 14.6385C16.4491 15.7362 16.4603 16.8365 16.4603 18.1155C17.3285 17.2478 18.0778 16.4864 18.8422 15.7412C19.1211 15.4687 19.4176 14.9498 19.858 15.3787C20.3008 15.81 19.7929 16.1151 19.5177 16.3951C18.627 17.3016 17.7075 18.1818 16.8356 19.1058C16.6342 19.3196 16.4816 19.6684 16.4753 19.9597C16.4403 21.5213 16.4591 23.0842 16.4591 24.6471C16.4591 24.9897 16.4678 25.376 16.0062 25.3948C15.4946 25.416 15.4971 25.0072 15.4958 24.6421C15.4946 23.8169 15.4958 22.9929 15.4958 22.3265Z" fill="black"/>
</g>
<defs>
<clipPath id="clip0_1044_15018">
<rect width="32" height="32" fill="white"/>
</clipPath>
</defs>
</svg>
